<?xml version="1.0" encoding="utf-8" standalone="no"?>
<!DOCTYPE svg PUBLIC "-//W3C//DTD SVG 1.1//EN"
  "http://www.w3.org/Graphics/SVG/1.1/DTD/svg11.dtd">
<!-- Created with matplotlib (https://matplotlib.org/) -->
<svg height="252.317344pt" version="1.1" viewBox="0 0 372.425 252.317344" width="372.425pt" xmlns="http://www.w3.org/2000/svg" xmlns:xlink="http://www.w3.org/1999/xlink">
 <defs>
  <style type="text/css">
*{stroke-linecap:butt;stroke-linejoin:round;}
  </style>
 </defs>
 <g id="figure_1">
  <g id="patch_1">
   <path d="M -0 252.317344 
L 372.425 252.317344 
L 372.425 0 
L -0 0 
z
" style="fill:#ffffff;"/>
  </g>
  <g id="axes_1">
   <g id="patch_2">
    <path d="M 26.925 228.439219 
L 361.725 228.439219 
L 361.725 10.999219 
L 26.925 10.999219 
z
" style="fill:#ffffff;"/>
   </g>
   <g id="matplotlib.axis_1">
    <g id="xtick_1">
     <g id="line2d_1">
      <defs>
       <path d="M 0 0 
L 0 3.5 
" id="mfdc6f84a9b" style="stroke:#000000;stroke-width:0.8;"/>
      </defs>
      <g>
       <use style="stroke:#000000;stroke-width:0.8;" x="42.143182" xlink:href="#mfdc6f84a9b" y="228.439219"/>
      </g>
     </g>
     <g id="text_1">
      <!-- 0 -->
      <defs>
       <path d="M 31.78125 66.40625 
Q 24.171875 66.40625 20.328125 58.90625 
Q 16.5 51.421875 16.5 36.375 
Q 16.5 21.390625 20.328125 13.890625 
Q 24.171875 6.390625 31.78125 6.390625 
Q 39.453125 6.390625 43.28125 13.890625 
Q 47.125 21.390625 47.125 36.375 
Q 47.125 51.421875 43.28125 58.90625 
Q 39.453125 66.40625 31.78125 66.40625 
z
M 31.78125 74.21875 
Q 44.046875 74.21875 50.515625 64.515625 
Q 56.984375 54.828125 56.984375 36.375 
Q 56.984375 17.96875 50.515625 8.265625 
Q 44.046875 -1.421875 31.78125 -1.421875 
Q 19.53125 -1.421875 13.0625 8.265625 
Q 6.59375 17.96875 6.59375 36.375 
Q 6.59375 54.828125 13.0625 64.515625 
Q 19.53125 74.21875 31.78125 74.21875 
z
" id="DejaVuSans-48"/>
      </defs>
      <g transform="translate(38.961932 243.037656)scale(0.1 -0.1)">
       <use xlink:href="#DejaVuSans-48"/>
      </g>
     </g>
    </g>
    <g id="xtick_2">
     <g id="line2d_2">
      <g>
       <use style="stroke:#000000;stroke-width:0.8;" x="97.281522" xlink:href="#mfdc6f84a9b" y="228.439219"/>
      </g>
     </g>
     <g id="text_2">
      <!-- 50 -->
      <defs>
       <path d="M 10.796875 72.90625 
L 49.515625 72.90625 
L 49.515625 64.59375 
L 19.828125 64.59375 
L 19.828125 46.734375 
Q 21.96875 47.46875 24.109375 47.828125 
Q 26.265625 48.1875 28.421875 48.1875 
Q 40.625 48.1875 47.75 41.5 
Q 54.890625 34.8125 54.890625 23.390625 
Q 54.890625 11.625 47.5625 5.09375 
Q 40.234375 -1.421875 26.90625 -1.421875 
Q 22.3125 -1.421875 17.546875 -0.640625 
Q 12.796875 0.140625 7.71875 1.703125 
L 7.71875 11.625 
Q 12.109375 9.234375 16.796875 8.0625 
Q 21.484375 6.890625 26.703125 6.890625 
Q 35.15625 6.890625 40.078125 11.328125 
Q 45.015625 15.765625 45.015625 23.390625 
Q 45.015625 31 40.078125 35.4375 
Q 35.15625 39.890625 26.703125 39.890625 
Q 22.75 39.890625 18.8125 39.015625 
Q 14.890625 38.140625 10.796875 36.28125 
z
" id="DejaVuSans-53"/>
      </defs>
      <g transform="translate(90.919022 243.037656)scale(0.1 -0.1)">
       <use xlink:href="#DejaVuSans-53"/>
       <use x="63.623047" xlink:href="#DejaVuSans-48"/>
      </g>
     </g>
    </g>
    <g id="xtick_3">
     <g id="line2d_3">
      <g>
       <use style="stroke:#000000;stroke-width:0.8;" x="152.419862" xlink:href="#mfdc6f84a9b" y="228.439219"/>
      </g>
     </g>
     <g id="text_3">
      <!-- 100 -->
      <defs>
       <path d="M 12.40625 8.296875 
L 28.515625 8.296875 
L 28.515625 63.921875 
L 10.984375 60.40625 
L 10.984375 69.390625 
L 28.421875 72.90625 
L 38.28125 72.90625 
L 38.28125 8.296875 
L 54.390625 8.296875 
L 54.390625 0 
L 12.40625 0 
z
" id="DejaVuSans-49"/>
      </defs>
      <g transform="translate(142.876112 243.037656)scale(0.1 -0.1)">
       <use xlink:href="#DejaVuSans-49"/>
       <use x="63.623047" xlink:href="#DejaVuSans-48"/>
       <use x="127.246094" xlink:href="#DejaVuSans-48"/>
      </g>
     </g>
    </g>
    <g id="xtick_4">
     <g id="line2d_4">
      <g>
       <use style="stroke:#000000;stroke-width:0.8;" x="207.558202" xlink:href="#mfdc6f84a9b" y="228.439219"/>
      </g>
     </g>
     <g id="text_4">
      <!-- 150 -->
      <g transform="translate(198.014452 243.037656)scale(0.1 -0.1)">
       <use xlink:href="#DejaVuSans-49"/>
       <use x="63.623047" xlink:href="#DejaVuSans-53"/>
       <use x="127.246094" xlink:href="#DejaVuSans-48"/>
      </g>
     </g>
    </g>
    <g id="xtick_5">
     <g id="line2d_5">
      <g>
       <use style="stroke:#000000;stroke-width:0.8;" x="262.696542" xlink:href="#mfdc6f84a9b" y="228.439219"/>
      </g>
     </g>
     <g id="text_5">
      <!-- 200 -->
      <defs>
       <path d="M 19.1875 8.296875 
L 53.609375 8.296875 
L 53.609375 0 
L 7.328125 0 
L 7.328125 8.296875 
Q 12.9375 14.109375 22.625 23.890625 
Q 32.328125 33.6875 34.8125 36.53125 
Q 39.546875 41.84375 41.421875 45.53125 
Q 43.3125 49.21875 43.3125 52.78125 
Q 43.3125 58.59375 39.234375 62.25 
Q 35.15625 65.921875 28.609375 65.921875 
Q 23.96875 65.921875 18.8125 64.3125 
Q 13.671875 62.703125 7.8125 59.421875 
L 7.8125 69.390625 
Q 13.765625 71.78125 18.9375 73 
Q 24.125 74.21875 28.421875 74.21875 
Q 39.75 74.21875 46.484375 68.546875 
Q 53.21875 62.890625 53.21875 53.421875 
Q 53.21875 48.921875 51.53125 44.890625 
Q 49.859375 40.875 45.40625 35.40625 
Q 44.1875 33.984375 37.640625 27.21875 
Q 31.109375 20.453125 19.1875 8.296875 
z
" id="DejaVuSans-50"/>
      </defs>
      <g transform="translate(253.152792 243.037656)scale(0.1 -0.1)">
       <use xlink:href="#DejaVuSans-50"/>
       <use x="63.623047" xlink:href="#DejaVuSans-48"/>
       <use x="127.246094" xlink:href="#DejaVuSans-48"/>
      </g>
     </g>
    </g>
    <g id="xtick_6">
     <g id="line2d_6">
      <g>
       <use style="stroke:#000000;stroke-width:0.8;" x="317.834881" xlink:href="#mfdc6f84a9b" y="228.439219"/>
      </g>
     </g>
     <g id="text_6">
      <!-- 250 -->
      <g transform="translate(308.291131 243.037656)scale(0.1 -0.1)">
       <use xlink:href="#DejaVuSans-50"/>
       <use x="63.623047" xlink:href="#DejaVuSans-53"/>
       <use x="127.246094" xlink:href="#DejaVuSans-48"/>
      </g>
     </g>
    </g>
   </g>
   <g id="matplotlib.axis_2">
    <g id="ytick_1">
     <g id="line2d_7">
      <defs>
       <path d="M 0 0 
L -3.5 0 
" id="mb478667472" style="stroke:#000000;stroke-width:0.8;"/>
      </defs>
      <g>
       <use style="stroke:#000000;stroke-width:0.8;" x="26.925" xlink:href="#mb478667472" y="228.439219"/>
      </g>
     </g>
     <g id="text_7">
      <!-- 40 -->
      <defs>
       <path d="M 37.796875 64.3125 
L 12.890625 25.390625 
L 37.796875 25.390625 
z
M 35.203125 72.90625 
L 47.609375 72.90625 
L 47.609375 25.390625 
L 58.015625 25.390625 
L 58.015625 17.1875 
L 47.609375 17.1875 
L 47.609375 0 
L 37.796875 0 
L 37.796875 17.1875 
L 4.890625 17.1875 
L 4.890625 26.703125 
z
" id="DejaVuSans-52"/>
      </defs>
      <g transform="translate(7.2 232.238438)scale(0.1 -0.1)">
       <use xlink:href="#DejaVuSans-52"/>
       <use x="63.623047" xlink:href="#DejaVuSans-48"/>
      </g>
     </g>
    </g>
    <g id="ytick_2">
     <g id="line2d_8">
      <g>
       <use style="stroke:#000000;stroke-width:0.8;" x="26.925" xlink:href="#mb478667472" y="192.199219"/>
      </g>
     </g>
     <g id="text_8">
      <!-- 45 -->
      <g transform="translate(7.2 195.998437)scale(0.1 -0.1)">
       <use xlink:href="#DejaVuSans-52"/>
       <use x="63.623047" xlink:href="#DejaVuSans-53"/>
      </g>
     </g>
    </g>
    <g id="ytick_3">
     <g id="line2d_9">
      <g>
       <use style="stroke:#000000;stroke-width:0.8;" x="26.925" xlink:href="#mb478667472" y="155.959219"/>
      </g>
     </g>
     <g id="text_9">
      <!-- 50 -->
      <g transform="translate(7.2 159.758437)scale(0.1 -0.1)">
       <use xlink:href="#DejaVuSans-53"/>
       <use x="63.623047" xlink:href="#DejaVuSans-48"/>
      </g>
     </g>
    </g>
    <g id="ytick_4">
     <g id="line2d_10">
      <g>
       <use style="stroke:#000000;stroke-width:0.8;" x="26.925" xlink:href="#mb478667472" y="119.719219"/>
      </g>
     </g>
     <g id="text_10">
      <!-- 55 -->
      <g transform="translate(7.2 123.518438)scale(0.1 -0.1)">
       <use xlink:href="#DejaVuSans-53"/>
       <use x="63.623047" xlink:href="#DejaVuSans-53"/>
      </g>
     </g>
    </g>
    <g id="ytick_5">
     <g id="line2d_11">
      <g>
       <use style="stroke:#000000;stroke-width:0.8;" x="26.925" xlink:href="#mb478667472" y="83.479219"/>
      </g>
     </g>
     <g id="text_11">
      <!-- 60 -->
      <defs>
       <path d="M 33.015625 40.375 
Q 26.375 40.375 22.484375 35.828125 
Q 18.609375 31.296875 18.609375 23.390625 
Q 18.609375 15.53125 22.484375 10.953125 
Q 26.375 6.390625 33.015625 6.390625 
Q 39.65625 6.390625 43.53125 10.953125 
Q 47.40625 15.53125 47.40625 23.390625 
Q 47.40625 31.296875 43.53125 35.828125 
Q 39.65625 40.375 33.015625 40.375 
z
M 52.59375 71.296875 
L 52.59375 62.3125 
Q 48.875 64.0625 45.09375 64.984375 
Q 41.3125 65.921875 37.59375 65.921875 
Q 27.828125 65.921875 22.671875 59.328125 
Q 17.53125 52.734375 16.796875 39.40625 
Q 19.671875 43.65625 24.015625 45.921875 
Q 28.375 48.1875 33.59375 48.1875 
Q 44.578125 48.1875 50.953125 41.515625 
Q 57.328125 34.859375 57.328125 23.390625 
Q 57.328125 12.15625 50.6875 5.359375 
Q 44.046875 -1.421875 33.015625 -1.421875 
Q 20.359375 -1.421875 13.671875 8.265625 
Q 6.984375 17.96875 6.984375 36.375 
Q 6.984375 53.65625 15.1875 63.9375 
Q 23.390625 74.21875 37.203125 74.21875 
Q 40.921875 74.21875 44.703125 73.484375 
Q 48.484375 72.75 52.59375 71.296875 
z
" id="DejaVuSans-54"/>
      </defs>
      <g transform="translate(7.2 87.278438)scale(0.1 -0.1)">
       <use xlink:href="#DejaVuSans-54"/>
       <use x="63.623047" xlink:href="#DejaVuSans-48"/>
      </g>
     </g>
    </g>
    <g id="ytick_6">
     <g id="line2d_12">
      <g>
       <use style="stroke:#000000;stroke-width:0.8;" x="26.925" xlink:href="#mb478667472" y="47.239219"/>
      </g>
     </g>
     <g id="text_12">
      <!-- 65 -->
      <g transform="translate(7.2 51.038438)scale(0.1 -0.1)">
       <use xlink:href="#DejaVuSans-54"/>
       <use x="63.623047" xlink:href="#DejaVuSans-53"/>
      </g>
     </g>
    </g>
    <g id="ytick_7">
     <g id="line2d_13">
      <g>
       <use style="stroke:#000000;stroke-width:0.8;" x="26.925" xlink:href="#mb478667472" y="10.999219"/>
      </g>
     </g>
     <g id="text_13">
      <!-- 70 -->
      <defs>
       <path d="M 8.203125 72.90625 
L 55.078125 72.90625 
L 55.078125 68.703125 
L 28.609375 0 
L 18.3125 0 
L 43.21875 64.59375 
L 8.203125 64.59375 
z
" id="DejaVuSans-55"/>
      </defs>
      <g transform="translate(7.2 14.798438)scale(0.1 -0.1)">
       <use xlink:href="#DejaVuSans-55"/>
       <use x="63.623047" xlink:href="#DejaVuSans-48"/>
      </g>
     </g>
    </g>
   </g>
   <g id="line2d_14">
    <defs>
     <path d="M 0 1.25 
C 0.331504 1.25 0.649475 1.118292 0.883883 0.883883 
C 1.118292 0.649475 1.25 0.331504 1.25 0 
C 1.25 -0.331504 1.118292 -0.649475 0.883883 -0.883883 
C 0.649475 -1.118292 0.331504 -1.25 0 -1.25 
C -0.331504 -1.25 -0.649475 -1.118292 -0.883883 -0.883883 
C -1.118292 -0.649475 -1.25 -0.331504 -1.25 0 
C -1.25 0.331504 -1.118292 0.649475 -0.883883 0.883883 
C -0.649475 1.118292 -0.331504 1.25 0 1.25 
z
" id="m51a2cabc9d" style="stroke:#161925;"/>
    </defs>
    <g clip-path="url(#pc8c2c3cf5c)">
     <use style="fill:#161925;stroke:#161925;" x="42.143182" xlink:href="#m51a2cabc9d" y="120.448072"/>
     <use style="fill:#161925;stroke:#161925;" x="43.245949" xlink:href="#m51a2cabc9d" y="120.250355"/>
     <use style="fill:#161925;stroke:#161925;" x="44.348715" xlink:href="#m51a2cabc9d" y="116.884872"/>
     <use style="fill:#161925;stroke:#161925;" x="45.451482" xlink:href="#m51a2cabc9d" y="113.266982"/>
     <use style="fill:#161925;stroke:#161925;" x="46.554249" xlink:href="#m51a2cabc9d" y="108.787967"/>
     <use style="fill:#161925;stroke:#161925;" x="47.657016" xlink:href="#m51a2cabc9d" y="105.880185"/>
     <use style="fill:#161925;stroke:#161925;" x="48.759783" xlink:href="#m51a2cabc9d" y="104.884934"/>
     <use style="fill:#161925;stroke:#161925;" x="49.862549" xlink:href="#m51a2cabc9d" y="106.684271"/>
     <use style="fill:#161925;stroke:#161925;" x="50.965316" xlink:href="#m51a2cabc9d" y="110.699973"/>
     <use style="fill:#161925;stroke:#161925;" x="52.068083" xlink:href="#m51a2cabc9d" y="113.122683"/>
     <use style="fill:#161925;stroke:#161925;" x="53.17085" xlink:href="#m51a2cabc9d" y="116.727439"/>
     <use style="fill:#161925;stroke:#161925;" x="54.273617" xlink:href="#m51a2cabc9d" y="118.233283"/>
     <use style="fill:#161925;stroke:#161925;" x="55.376383" xlink:href="#m51a2cabc9d" y="121.257218"/>
     <use style="fill:#161925;stroke:#161925;" x="84.04832" xlink:href="#m51a2cabc9d" y="130.351724"/>
     <use style="fill:#161925;stroke:#161925;" x="85.151087" xlink:href="#m51a2cabc9d" y="123.383254"/>
     <use style="fill:#161925;stroke:#161925;" x="86.253854" xlink:href="#m51a2cabc9d" y="121.99926"/>
     <use style="fill:#161925;stroke:#161925;" x="87.356621" xlink:href="#m51a2cabc9d" y="119.427357"/>
     <use style="fill:#161925;stroke:#161925;" x="88.459387" xlink:href="#m51a2cabc9d" y="116.169705"/>
     <use style="fill:#161925;stroke:#161925;" x="89.562154" xlink:href="#m51a2cabc9d" y="113.83514"/>
     <use style="fill:#161925;stroke:#161925;" x="90.664921" xlink:href="#m51a2cabc9d" y="111.35293"/>
     <use style="fill:#161925;stroke:#161925;" x="91.767688" xlink:href="#m51a2cabc9d" y="109.760629"/>
     <use style="fill:#161925;stroke:#161925;" x="92.870455" xlink:href="#m51a2cabc9d" y="109.53529"/>
     <use style="fill:#161925;stroke:#161925;" x="93.973221" xlink:href="#m51a2cabc9d" y="110.478118"/>
     <use style="fill:#161925;stroke:#161925;" x="95.075988" xlink:href="#m51a2cabc9d" y="112.713589"/>
     <use style="fill:#161925;stroke:#161925;" x="96.178755" xlink:href="#m51a2cabc9d" y="114.303734"/>
     <use style="fill:#161925;stroke:#161925;" x="97.281522" xlink:href="#m51a2cabc9d" y="114.299891"/>
     <use style="fill:#161925;stroke:#161925;" x="98.384289" xlink:href="#m51a2cabc9d" y="113.651164"/>
     <use style="fill:#161925;stroke:#161925;" x="99.487055" xlink:href="#m51a2cabc9d" y="111.777507"/>
     <use style="fill:#161925;stroke:#161925;" x="100.589822" xlink:href="#m51a2cabc9d" y="110.724664"/>
     <use style="fill:#161925;stroke:#161925;" x="101.692589" xlink:href="#m51a2cabc9d" y="108.379869"/>
     <use style="fill:#161925;stroke:#161925;" x="102.795356" xlink:href="#m51a2cabc9d" y="104.658959"/>
     <use style="fill:#161925;stroke:#161925;" x="103.898123" xlink:href="#m51a2cabc9d" y="100.700822"/>
     <use style="fill:#161925;stroke:#161925;" x="105.000889" xlink:href="#m51a2cabc9d" y="97.419116"/>
     <use style="fill:#161925;stroke:#161925;" x="106.103656" xlink:href="#m51a2cabc9d" y="95.408016"/>
     <use style="fill:#161925;stroke:#161925;" x="107.206423" xlink:href="#m51a2cabc9d" y="95.009816"/>
     <use style="fill:#161925;stroke:#161925;" x="108.30919" xlink:href="#m51a2cabc9d" y="95.496907"/>
     <use style="fill:#161925;stroke:#161925;" x="109.411957" xlink:href="#m51a2cabc9d" y="96.392097"/>
     <use style="fill:#161925;stroke:#161925;" x="110.514723" xlink:href="#m51a2cabc9d" y="97.357652"/>
     <use style="fill:#161925;stroke:#161925;" x="111.61749" xlink:href="#m51a2cabc9d" y="98.495019"/>
     <use style="fill:#161925;stroke:#161925;" x="112.720257" xlink:href="#m51a2cabc9d" y="99.256581"/>
     <use style="fill:#161925;stroke:#161925;" x="113.823024" xlink:href="#m51a2cabc9d" y="99.511835"/>
     <use style="fill:#161925;stroke:#161925;" x="114.925791" xlink:href="#m51a2cabc9d" y="99.093811"/>
     <use style="fill:#161925;stroke:#161925;" x="116.028557" xlink:href="#m51a2cabc9d" y="98.460955"/>
     <use style="fill:#161925;stroke:#161925;" x="117.131324" xlink:href="#m51a2cabc9d" y="97.800782"/>
     <use style="fill:#161925;stroke:#161925;" x="118.234091" xlink:href="#m51a2cabc9d" y="97.315764"/>
     <use style="fill:#161925;stroke:#161925;" x="119.336858" xlink:href="#m51a2cabc9d" y="97.689495"/>
     <use style="fill:#161925;stroke:#161925;" x="120.439625" xlink:href="#m51a2cabc9d" y="97.521749"/>
     <use style="fill:#161925;stroke:#161925;" x="121.542391" xlink:href="#m51a2cabc9d" y="97.394591"/>
     <use style="fill:#161925;stroke:#161925;" x="122.645158" xlink:href="#m51a2cabc9d" y="97.19245"/>
     <use style="fill:#161925;stroke:#161925;" x="123.747925" xlink:href="#m51a2cabc9d" y="96.867105"/>
     <use style="fill:#161925;stroke:#161925;" x="124.850692" xlink:href="#m51a2cabc9d" y="97.084509"/>
     <use style="fill:#161925;stroke:#161925;" x="125.953458" xlink:href="#m51a2cabc9d" y="97.689605"/>
     <use style="fill:#161925;stroke:#161925;" x="127.056225" xlink:href="#m51a2cabc9d" y="100.345589"/>
     <use style="fill:#161925;stroke:#161925;" x="128.158992" xlink:href="#m51a2cabc9d" y="107.888935"/>
     <use style="fill:#161925;stroke:#161925;" x="129.261759" xlink:href="#m51a2cabc9d" y="115.772694"/>
     <use style="fill:#161925;stroke:#161925;" x="130.364526" xlink:href="#m51a2cabc9d" y="120.885478"/>
     <use style="fill:#161925;stroke:#161925;" x="131.467292" xlink:href="#m51a2cabc9d" y="125.556128"/>
     <use style="fill:#161925;stroke:#161925;" x="132.570059" xlink:href="#m51a2cabc9d" y="131.229826"/>
     <use style="fill:#161925;stroke:#161925;" x="133.672826" xlink:href="#m51a2cabc9d" y="135.145246"/>
     <use style="fill:#161925;stroke:#161925;" x="134.775593" xlink:href="#m51a2cabc9d" y="138.977"/>
     <use style="fill:#161925;stroke:#161925;" x="135.87836" xlink:href="#m51a2cabc9d" y="143.1362"/>
     <use style="fill:#161925;stroke:#161925;" x="136.981126" xlink:href="#m51a2cabc9d" y="144.206241"/>
     <use style="fill:#161925;stroke:#161925;" x="141.392194" xlink:href="#m51a2cabc9d" y="109.455993"/>
     <use style="fill:#161925;stroke:#161925;" x="142.49496" xlink:href="#m51a2cabc9d" y="108.983086"/>
     <use style="fill:#161925;stroke:#161925;" x="143.597727" xlink:href="#m51a2cabc9d" y="108.758272"/>
     <use style="fill:#161925;stroke:#161925;" x="144.700494" xlink:href="#m51a2cabc9d" y="108.601558"/>
     <use style="fill:#161925;stroke:#161925;" x="145.803261" xlink:href="#m51a2cabc9d" y="108.513745"/>
     <use style="fill:#161925;stroke:#161925;" x="146.906028" xlink:href="#m51a2cabc9d" y="109.224848"/>
     <use style="fill:#161925;stroke:#161925;" x="148.008794" xlink:href="#m51a2cabc9d" y="111.071492"/>
     <use style="fill:#161925;stroke:#161925;" x="149.111561" xlink:href="#m51a2cabc9d" y="113.349321"/>
     <use style="fill:#161925;stroke:#161925;" x="150.214328" xlink:href="#m51a2cabc9d" y="115.163091"/>
     <use style="fill:#161925;stroke:#161925;" x="151.317095" xlink:href="#m51a2cabc9d" y="116.318594"/>
     <use style="fill:#161925;stroke:#161925;" x="152.419862" xlink:href="#m51a2cabc9d" y="117.616684"/>
     <use style="fill:#161925;stroke:#161925;" x="153.522628" xlink:href="#m51a2cabc9d" y="117.2497"/>
     <use style="fill:#161925;stroke:#161925;" x="154.625395" xlink:href="#m51a2cabc9d" y="115.781708"/>
     <use style="fill:#161925;stroke:#161925;" x="155.728162" xlink:href="#m51a2cabc9d" y="113.844651"/>
     <use style="fill:#161925;stroke:#161925;" x="156.830929" xlink:href="#m51a2cabc9d" y="111.691547"/>
     <use style="fill:#161925;stroke:#161925;" x="157.933696" xlink:href="#m51a2cabc9d" y="109.272487"/>
     <use style="fill:#161925;stroke:#161925;" x="159.036462" xlink:href="#m51a2cabc9d" y="107.301782"/>
     <use style="fill:#161925;stroke:#161925;" x="160.139229" xlink:href="#m51a2cabc9d" y="107.422221"/>
     <use style="fill:#161925;stroke:#161925;" x="161.241996" xlink:href="#m51a2cabc9d" y="108.493036"/>
     <use style="fill:#161925;stroke:#161925;" x="162.344763" xlink:href="#m51a2cabc9d" y="110.111881"/>
     <use style="fill:#161925;stroke:#161925;" x="163.44753" xlink:href="#m51a2cabc9d" y="112.254285"/>
     <use style="fill:#161925;stroke:#161925;" x="164.550296" xlink:href="#m51a2cabc9d" y="114.581855"/>
     <use style="fill:#161925;stroke:#161925;" x="165.653063" xlink:href="#m51a2cabc9d" y="115.154492"/>
     <use style="fill:#161925;stroke:#161925;" x="166.75583" xlink:href="#m51a2cabc9d" y="115.992448"/>
     <use style="fill:#161925;stroke:#161925;" x="167.858597" xlink:href="#m51a2cabc9d" y="115.65784"/>
     <use style="fill:#161925;stroke:#161925;" x="168.961364" xlink:href="#m51a2cabc9d" y="114.356101"/>
     <use style="fill:#161925;stroke:#161925;" x="170.06413" xlink:href="#m51a2cabc9d" y="113.035008"/>
     <use style="fill:#161925;stroke:#161925;" x="171.166897" xlink:href="#m51a2cabc9d" y="111.540915"/>
     <use style="fill:#161925;stroke:#161925;" x="172.269664" xlink:href="#m51a2cabc9d" y="110.2376"/>
     <use style="fill:#161925;stroke:#161925;" x="173.372431" xlink:href="#m51a2cabc9d" y="110.040989"/>
     <use style="fill:#161925;stroke:#161925;" x="174.475198" xlink:href="#m51a2cabc9d" y="110.726267"/>
     <use style="fill:#161925;stroke:#161925;" x="175.577964" xlink:href="#m51a2cabc9d" y="112.013463"/>
     <use style="fill:#161925;stroke:#161925;" x="176.680731" xlink:href="#m51a2cabc9d" y="112.898671"/>
     <use style="fill:#161925;stroke:#161925;" x="177.783498" xlink:href="#m51a2cabc9d" y="113.388665"/>
     <use style="fill:#161925;stroke:#161925;" x="178.886265" xlink:href="#m51a2cabc9d" y="114.645281"/>
     <use style="fill:#161925;stroke:#161925;" x="179.989032" xlink:href="#m51a2cabc9d" y="118.310838"/>
     <use style="fill:#161925;stroke:#161925;" x="193.222233" xlink:href="#m51a2cabc9d" y="132.416324"/>
     <use style="fill:#161925;stroke:#161925;" x="194.325" xlink:href="#m51a2cabc9d" y="134.738281"/>
     <use style="fill:#161925;stroke:#161925;" x="195.427767" xlink:href="#m51a2cabc9d" y="137.057584"/>
     <use style="fill:#161925;stroke:#161925;" x="196.530534" xlink:href="#m51a2cabc9d" y="138.801595"/>
     <use style="fill:#161925;stroke:#161925;" x="197.6333" xlink:href="#m51a2cabc9d" y="138.912439"/>
     <use style="fill:#161925;stroke:#161925;" x="198.736067" xlink:href="#m51a2cabc9d" y="137.573319"/>
     <use style="fill:#161925;stroke:#161925;" x="199.838834" xlink:href="#m51a2cabc9d" y="136.152938"/>
     <use style="fill:#161925;stroke:#161925;" x="200.941601" xlink:href="#m51a2cabc9d" y="134.957095"/>
     <use style="fill:#161925;stroke:#161925;" x="202.044368" xlink:href="#m51a2cabc9d" y="133.938149"/>
     <use style="fill:#161925;stroke:#161925;" x="203.147134" xlink:href="#m51a2cabc9d" y="133.277035"/>
     <use style="fill:#161925;stroke:#161925;" x="204.249901" xlink:href="#m51a2cabc9d" y="132.205142"/>
     <use style="fill:#161925;stroke:#161925;" x="205.352668" xlink:href="#m51a2cabc9d" y="130.981622"/>
     <use style="fill:#161925;stroke:#161925;" x="206.455435" xlink:href="#m51a2cabc9d" y="128.565493"/>
     <use style="fill:#161925;stroke:#161925;" x="207.558202" xlink:href="#m51a2cabc9d" y="126.236872"/>
     <use style="fill:#161925;stroke:#161925;" x="208.660968" xlink:href="#m51a2cabc9d" y="123.801693"/>
     <use style="fill:#161925;stroke:#161925;" x="209.763735" xlink:href="#m51a2cabc9d" y="121.201312"/>
     <use style="fill:#161925;stroke:#161925;" x="210.866502" xlink:href="#m51a2cabc9d" y="118.957767"/>
     <use style="fill:#161925;stroke:#161925;" x="211.969269" xlink:href="#m51a2cabc9d" y="117.541341"/>
     <use style="fill:#161925;stroke:#161925;" x="213.072036" xlink:href="#m51a2cabc9d" y="116.049875"/>
     <use style="fill:#161925;stroke:#161925;" x="214.174802" xlink:href="#m51a2cabc9d" y="117.094589"/>
     <use style="fill:#161925;stroke:#161925;" x="215.277569" xlink:href="#m51a2cabc9d" y="118.078034"/>
     <use style="fill:#161925;stroke:#161925;" x="216.380336" xlink:href="#m51a2cabc9d" y="119.349027"/>
     <use style="fill:#161925;stroke:#161925;" x="217.483103" xlink:href="#m51a2cabc9d" y="119.989404"/>
     <use style="fill:#161925;stroke:#161925;" x="218.58587" xlink:href="#m51a2cabc9d" y="120.286796"/>
     <use style="fill:#161925;stroke:#161925;" x="219.688636" xlink:href="#m51a2cabc9d" y="120.29028"/>
     <use style="fill:#161925;stroke:#161925;" x="220.791403" xlink:href="#m51a2cabc9d" y="120.143768"/>
     <use style="fill:#161925;stroke:#161925;" x="221.89417" xlink:href="#m51a2cabc9d" y="119.296384"/>
     <use style="fill:#161925;stroke:#161925;" x="222.996937" xlink:href="#m51a2cabc9d" y="118.438106"/>
     <use style="fill:#161925;stroke:#161925;" x="224.099704" xlink:href="#m51a2cabc9d" y="118.196122"/>
     <use style="fill:#161925;stroke:#161925;" x="225.20247" xlink:href="#m51a2cabc9d" y="118.340173"/>
     <use style="fill:#161925;stroke:#161925;" x="226.305237" xlink:href="#m51a2cabc9d" y="118.756345"/>
     <use style="fill:#161925;stroke:#161925;" x="227.408004" xlink:href="#m51a2cabc9d" y="118.535236"/>
     <use style="fill:#161925;stroke:#161925;" x="228.510771" xlink:href="#m51a2cabc9d" y="117.721943"/>
     <use style="fill:#161925;stroke:#161925;" x="229.613538" xlink:href="#m51a2cabc9d" y="116.367339"/>
     <use style="fill:#161925;stroke:#161925;" x="230.716304" xlink:href="#m51a2cabc9d" y="117.139961"/>
     <use style="fill:#161925;stroke:#161925;" x="231.819071" xlink:href="#m51a2cabc9d" y="121.761147"/>
     <use style="fill:#161925;stroke:#161925;" x="232.921838" xlink:href="#m51a2cabc9d" y="127.464402"/>
     <use style="fill:#161925;stroke:#161925;" x="248.360573" xlink:href="#m51a2cabc9d" y="124.701389"/>
     <use style="fill:#161925;stroke:#161925;" x="249.46334" xlink:href="#m51a2cabc9d" y="130.580021"/>
     <use style="fill:#161925;stroke:#161925;" x="250.566107" xlink:href="#m51a2cabc9d" y="131.435258"/>
     <use style="fill:#161925;stroke:#161925;" x="251.668874" xlink:href="#m51a2cabc9d" y="130.425491"/>
     <use style="fill:#161925;stroke:#161925;" x="252.77164" xlink:href="#m51a2cabc9d" y="129.592761"/>
     <use style="fill:#161925;stroke:#161925;" x="253.874407" xlink:href="#m51a2cabc9d" y="129.776958"/>
     <use style="fill:#161925;stroke:#161925;" x="254.977174" xlink:href="#m51a2cabc9d" y="130.479711"/>
     <use style="fill:#161925;stroke:#161925;" x="256.079941" xlink:href="#m51a2cabc9d" y="132.090979"/>
     <use style="fill:#161925;stroke:#161925;" x="257.182708" xlink:href="#m51a2cabc9d" y="134.600755"/>
     <use style="fill:#161925;stroke:#161925;" x="258.285474" xlink:href="#m51a2cabc9d" y="136.414995"/>
     <use style="fill:#161925;stroke:#161925;" x="259.388241" xlink:href="#m51a2cabc9d" y="138.010753"/>
     <use style="fill:#161925;stroke:#161925;" x="260.491008" xlink:href="#m51a2cabc9d" y="138.903011"/>
     <use style="fill:#161925;stroke:#161925;" x="261.593775" xlink:href="#m51a2cabc9d" y="138.500664"/>
     <use style="fill:#161925;stroke:#161925;" x="262.696542" xlink:href="#m51a2cabc9d" y="136.808163"/>
     <use style="fill:#161925;stroke:#161925;" x="263.799308" xlink:href="#m51a2cabc9d" y="134.349122"/>
     <use style="fill:#161925;stroke:#161925;" x="264.902075" xlink:href="#m51a2cabc9d" y="132.892245"/>
     <use style="fill:#161925;stroke:#161925;" x="266.004842" xlink:href="#m51a2cabc9d" y="131.270028"/>
     <use style="fill:#161925;stroke:#161925;" x="267.107609" xlink:href="#m51a2cabc9d" y="130.712349"/>
     <use style="fill:#161925;stroke:#161925;" x="268.210375" xlink:href="#m51a2cabc9d" y="130.942664"/>
     <use style="fill:#161925;stroke:#161925;" x="269.313142" xlink:href="#m51a2cabc9d" y="131.776169"/>
     <use style="fill:#161925;stroke:#161925;" x="270.415909" xlink:href="#m51a2cabc9d" y="133.62414"/>
     <use style="fill:#161925;stroke:#161925;" x="271.518676" xlink:href="#m51a2cabc9d" y="136.086857"/>
     <use style="fill:#161925;stroke:#161925;" x="272.621443" xlink:href="#m51a2cabc9d" y="138.751302"/>
     <use style="fill:#161925;stroke:#161925;" x="273.724209" xlink:href="#m51a2cabc9d" y="140.306249"/>
     <use style="fill:#161925;stroke:#161925;" x="274.826976" xlink:href="#m51a2cabc9d" y="139.757474"/>
     <use style="fill:#161925;stroke:#161925;" x="275.929743" xlink:href="#m51a2cabc9d" y="138.925739"/>
     <use style="fill:#161925;stroke:#161925;" x="277.03251" xlink:href="#m51a2cabc9d" y="136.353614"/>
     <use style="fill:#161925;stroke:#161925;" x="278.135277" xlink:href="#m51a2cabc9d" y="134.088504"/>
     <use style="fill:#161925;stroke:#161925;" x="279.238043" xlink:href="#m51a2cabc9d" y="133.613191"/>
     <use style="fill:#161925;stroke:#161925;" x="280.34081" xlink:href="#m51a2cabc9d" y="132.514782"/>
     <use style="fill:#161925;stroke:#161925;" x="281.443577" xlink:href="#m51a2cabc9d" y="132.942428"/>
     <use style="fill:#161925;stroke:#161925;" x="282.546344" xlink:href="#m51a2cabc9d" y="135.027351"/>
     <use style="fill:#161925;stroke:#161925;" x="283.649111" xlink:href="#m51a2cabc9d" y="137.251845"/>
     <use style="fill:#161925;stroke:#161925;" x="284.751877" xlink:href="#m51a2cabc9d" y="138.864939"/>
     <use style="fill:#161925;stroke:#161925;" x="285.854644" xlink:href="#m51a2cabc9d" y="140.263532"/>
     <use style="fill:#161925;stroke:#161925;" x="286.957411" xlink:href="#m51a2cabc9d" y="140.964266"/>
     <use style="fill:#161925;stroke:#161925;" x="288.060178" xlink:href="#m51a2cabc9d" y="140.933521"/>
     <use style="fill:#161925;stroke:#161925;" x="289.162945" xlink:href="#m51a2cabc9d" y="138.445809"/>
     <use style="fill:#161925;stroke:#161925;" x="290.265711" xlink:href="#m51a2cabc9d" y="135.168775"/>
     <use style="fill:#161925;stroke:#161925;" x="291.368478" xlink:href="#m51a2cabc9d" y="133.215682"/>
     <use style="fill:#161925;stroke:#161925;" x="292.471245" xlink:href="#m51a2cabc9d" y="130.876362"/>
     <use style="fill:#161925;stroke:#161925;" x="293.574012" xlink:href="#m51a2cabc9d" y="130.050903"/>
     <use style="fill:#161925;stroke:#161925;" x="294.676779" xlink:href="#m51a2cabc9d" y="130.198466"/>
     <use style="fill:#161925;stroke:#161925;" x="295.779545" xlink:href="#m51a2cabc9d" y="131.639168"/>
     <use style="fill:#161925;stroke:#161925;" x="296.882312" xlink:href="#m51a2cabc9d" y="134.239246"/>
     <use style="fill:#161925;stroke:#161925;" x="297.985079" xlink:href="#m51a2cabc9d" y="137.666524"/>
     <use style="fill:#161925;stroke:#161925;" x="299.087846" xlink:href="#m51a2cabc9d" y="141.575225"/>
     <use style="fill:#161925;stroke:#161925;" x="300.190613" xlink:href="#m51a2cabc9d" y="144.23154"/>
     <use style="fill:#161925;stroke:#161925;" x="301.293379" xlink:href="#m51a2cabc9d" y="143.895495"/>
     <use style="fill:#161925;stroke:#161925;" x="302.396146" xlink:href="#m51a2cabc9d" y="141.541576"/>
     <use style="fill:#161925;stroke:#161925;" x="303.498913" xlink:href="#m51a2cabc9d" y="136.854889"/>
     <use style="fill:#161925;stroke:#161925;" x="304.60168" xlink:href="#m51a2cabc9d" y="134.807265"/>
     <use style="fill:#161925;stroke:#161925;" x="305.704447" xlink:href="#m51a2cabc9d" y="132.141494"/>
     <use style="fill:#161925;stroke:#161925;" x="306.807213" xlink:href="#m51a2cabc9d" y="130.127436"/>
     <use style="fill:#161925;stroke:#161925;" x="307.90998" xlink:href="#m51a2cabc9d" y="130.304223"/>
     <use style="fill:#161925;stroke:#161925;" x="309.012747" xlink:href="#m51a2cabc9d" y="130.346305"/>
     <use style="fill:#161925;stroke:#161925;" x="310.115514" xlink:href="#m51a2cabc9d" y="133.464219"/>
     <use style="fill:#161925;stroke:#161925;" x="311.218281" xlink:href="#m51a2cabc9d" y="136.088544"/>
     <use style="fill:#161925;stroke:#161925;" x="312.321047" xlink:href="#m51a2cabc9d" y="139.018252"/>
     <use style="fill:#161925;stroke:#161925;" x="313.423814" xlink:href="#m51a2cabc9d" y="140.456964"/>
     <use style="fill:#161925;stroke:#161925;" x="314.526581" xlink:href="#m51a2cabc9d" y="140.762512"/>
     <use style="fill:#161925;stroke:#161925;" x="315.629348" xlink:href="#m51a2cabc9d" y="138.49566"/>
     <use style="fill:#161925;stroke:#161925;" x="316.732115" xlink:href="#m51a2cabc9d" y="134.854517"/>
     <use style="fill:#161925;stroke:#161925;" x="317.834881" xlink:href="#m51a2cabc9d" y="131.947758"/>
     <use style="fill:#161925;stroke:#161925;" x="318.937648" xlink:href="#m51a2cabc9d" y="129.773115"/>
     <use style="fill:#161925;stroke:#161925;" x="320.040415" xlink:href="#m51a2cabc9d" y="129.123365"/>
     <use style="fill:#161925;stroke:#161925;" x="321.143182" xlink:href="#m51a2cabc9d" y="129.245739"/>
     <use style="fill:#161925;stroke:#161925;" x="322.245949" xlink:href="#m51a2cabc9d" y="130.1649"/>
     <use style="fill:#161925;stroke:#161925;" x="323.348715" xlink:href="#m51a2cabc9d" y="132.389726"/>
     <use style="fill:#161925;stroke:#161925;" x="324.451482" xlink:href="#m51a2cabc9d" y="136.515831"/>
     <use style="fill:#161925;stroke:#161925;" x="325.554249" xlink:href="#m51a2cabc9d" y="140.3514"/>
     <use style="fill:#161925;stroke:#161925;" x="326.657016" xlink:href="#m51a2cabc9d" y="144.230849"/>
     <use style="fill:#161925;stroke:#161925;" x="327.759783" xlink:href="#m51a2cabc9d" y="147.463699"/>
     <use style="fill:#161925;stroke:#161925;" x="328.862549" xlink:href="#m51a2cabc9d" y="147.991296"/>
     <use style="fill:#161925;stroke:#161925;" x="329.965316" xlink:href="#m51a2cabc9d" y="144.361766"/>
     <use style="fill:#161925;stroke:#161925;" x="331.068083" xlink:href="#m51a2cabc9d" y="141.680401"/>
     <use style="fill:#161925;stroke:#161925;" x="332.17085" xlink:href="#m51a2cabc9d" y="136.562585"/>
     <use style="fill:#161925;stroke:#161925;" x="333.273617" xlink:href="#m51a2cabc9d" y="133.92438"/>
     <use style="fill:#161925;stroke:#161925;" x="334.376383" xlink:href="#m51a2cabc9d" y="131.072918"/>
     <use style="fill:#161925;stroke:#161925;" x="335.47915" xlink:href="#m51a2cabc9d" y="129.336068"/>
     <use style="fill:#161925;stroke:#161925;" x="336.581917" xlink:href="#m51a2cabc9d" y="129.399108"/>
     <use style="fill:#161925;stroke:#161925;" x="337.684684" xlink:href="#m51a2cabc9d" y="130.733334"/>
     <use style="fill:#161925;stroke:#161925;" x="338.787451" xlink:href="#m51a2cabc9d" y="134.953473"/>
     <use style="fill:#161925;stroke:#161925;" x="339.890217" xlink:href="#m51a2cabc9d" y="139.300962"/>
     <use style="fill:#161925;stroke:#161925;" x="340.992984" xlink:href="#m51a2cabc9d" y="141.175006"/>
     <use style="fill:#161925;stroke:#161925;" x="342.095751" xlink:href="#m51a2cabc9d" y="142.284807"/>
     <use style="fill:#161925;stroke:#161925;" x="343.198518" xlink:href="#m51a2cabc9d" y="142.858771"/>
     <use style="fill:#161925;stroke:#161925;" x="344.301285" xlink:href="#m51a2cabc9d" y="139.928316"/>
     <use style="fill:#161925;stroke:#161925;" x="345.404051" xlink:href="#m51a2cabc9d" y="140.896471"/>
     <use style="fill:#161925;stroke:#161925;" x="346.506818" xlink:href="#m51a2cabc9d" y="136.005874"/>
    </g>
   </g>
   <g id="line2d_15">
    <defs>
     <path d="M 0 1.25 
C 0.331504 1.25 0.649475 1.118292 0.883883 0.883883 
C 1.118292 0.649475 1.25 0.331504 1.25 0 
C 1.25 -0.331504 1.118292 -0.649475 0.883883 -0.883883 
C 0.649475 -1.118292 0.331504 -1.25 0 -1.25 
C -0.331504 -1.25 -0.649475 -1.118292 -0.883883 -0.883883 
C -1.118292 -0.649475 -1.25 -0.331504 -1.25 0 
C -1.25 0.331504 -1.118292 0.649475 -0.883883 0.883883 
C -0.649475 1.118292 -0.331504 1.25 0 1.25 
z
" id="m496871a5a9" style="stroke:#02c39a;"/>
    </defs>
    <g clip-path="url(#pc8c2c3cf5c)">
     <use style="fill:#02c39a;stroke:#02c39a;" x="42.143182" xlink:href="#m496871a5a9" y="120.448072"/>
     <use style="fill:#02c39a;stroke:#02c39a;" x="43.245949" xlink:href="#m496871a5a9" y="120.250355"/>
     <use style="fill:#02c39a;stroke:#02c39a;" x="44.348715" xlink:href="#m496871a5a9" y="116.884872"/>
     <use style="fill:#02c39a;stroke:#02c39a;" x="45.451482" xlink:href="#m496871a5a9" y="113.266982"/>
     <use style="fill:#02c39a;stroke:#02c39a;" x="46.554249" xlink:href="#m496871a5a9" y="108.787967"/>
     <use style="fill:#02c39a;stroke:#02c39a;" x="47.657016" xlink:href="#m496871a5a9" y="105.880185"/>
     <use style="fill:#02c39a;stroke:#02c39a;" x="48.759783" xlink:href="#m496871a5a9" y="104.884934"/>
     <use style="fill:#02c39a;stroke:#02c39a;" x="49.862549" xlink:href="#m496871a5a9" y="106.684271"/>
     <use style="fill:#02c39a;stroke:#02c39a;" x="50.965316" xlink:href="#m496871a5a9" y="110.699973"/>
     <use style="fill:#02c39a;stroke:#02c39a;" x="52.068083" xlink:href="#m496871a5a9" y="113.122683"/>
     <use style="fill:#02c39a;stroke:#02c39a;" x="53.17085" xlink:href="#m496871a5a9" y="116.727439"/>
     <use style="fill:#02c39a;stroke:#02c39a;" x="54.273617" xlink:href="#m496871a5a9" y="118.233283"/>
     <use style="fill:#02c39a;stroke:#02c39a;" x="55.376383" xlink:href="#m496871a5a9" y="121.257218"/>
     <use style="fill:#02c39a;stroke:#02c39a;" x="84.04832" xlink:href="#m496871a5a9" y="130.351724"/>
     <use style="fill:#02c39a;stroke:#02c39a;" x="85.151087" xlink:href="#m496871a5a9" y="123.383254"/>
     <use style="fill:#02c39a;stroke:#02c39a;" x="86.253854" xlink:href="#m496871a5a9" y="121.99926"/>
     <use style="fill:#02c39a;stroke:#02c39a;" x="87.356621" xlink:href="#m496871a5a9" y="119.427357"/>
     <use style="fill:#02c39a;stroke:#02c39a;" x="88.459387" xlink:href="#m496871a5a9" y="116.169705"/>
     <use style="fill:#02c39a;stroke:#02c39a;" x="89.562154" xlink:href="#m496871a5a9" y="113.83514"/>
     <use style="fill:#02c39a;stroke:#02c39a;" x="90.664921" xlink:href="#m496871a5a9" y="111.35293"/>
     <use style="fill:#02c39a;stroke:#02c39a;" x="91.767688" xlink:href="#m496871a5a9" y="109.760629"/>
     <use style="fill:#02c39a;stroke:#02c39a;" x="92.870455" xlink:href="#m496871a5a9" y="109.53529"/>
     <use style="fill:#02c39a;stroke:#02c39a;" x="93.973221" xlink:href="#m496871a5a9" y="110.478118"/>
     <use style="fill:#02c39a;stroke:#02c39a;" x="95.075988" xlink:href="#m496871a5a9" y="112.713589"/>
     <use style="fill:#02c39a;stroke:#02c39a;" x="96.178755" xlink:href="#m496871a5a9" y="114.303734"/>
     <use style="fill:#02c39a;stroke:#02c39a;" x="98.384289" xlink:href="#m496871a5a9" y="113.651164"/>
     <use style="fill:#02c39a;stroke:#02c39a;" x="102.795356" xlink:href="#m496871a5a9" y="104.658959"/>
     <use style="fill:#02c39a;stroke:#02c39a;" x="105.000889" xlink:href="#m496871a5a9" y="97.419116"/>
     <use style="fill:#02c39a;stroke:#02c39a;" x="109.411957" xlink:href="#m496871a5a9" y="96.392097"/>
     <use style="fill:#02c39a;stroke:#02c39a;" x="111.61749" xlink:href="#m496871a5a9" y="98.495019"/>
     <use style="fill:#02c39a;stroke:#02c39a;" x="116.028557" xlink:href="#m496871a5a9" y="98.460955"/>
     <use style="fill:#02c39a;stroke:#02c39a;" x="118.234091" xlink:href="#m496871a5a9" y="97.315764"/>
     <use style="fill:#02c39a;stroke:#02c39a;" x="122.645158" xlink:href="#m496871a5a9" y="97.19245"/>
     <use style="fill:#02c39a;stroke:#02c39a;" x="124.850692" xlink:href="#m496871a5a9" y="97.084509"/>
     <use style="fill:#02c39a;stroke:#02c39a;" x="129.261759" xlink:href="#m496871a5a9" y="115.772694"/>
     <use style="fill:#02c39a;stroke:#02c39a;" x="131.467292" xlink:href="#m496871a5a9" y="125.556128"/>
     <use style="fill:#02c39a;stroke:#02c39a;" x="135.87836" xlink:href="#m496871a5a9" y="143.1362"/>
     <use style="fill:#02c39a;stroke:#02c39a;" x="142.49496" xlink:href="#m496871a5a9" y="108.983086"/>
     <use style="fill:#02c39a;stroke:#02c39a;" x="144.700494" xlink:href="#m496871a5a9" y="108.601558"/>
     <use style="fill:#02c39a;stroke:#02c39a;" x="149.111561" xlink:href="#m496871a5a9" y="113.349321"/>
     <use style="fill:#02c39a;stroke:#02c39a;" x="151.317095" xlink:href="#m496871a5a9" y="116.318594"/>
     <use style="fill:#02c39a;stroke:#02c39a;" x="152.419862" xlink:href="#m496871a5a9" y="117.616684"/>
     <use style="fill:#02c39a;stroke:#02c39a;" x="153.522628" xlink:href="#m496871a5a9" y="117.2497"/>
     <use style="fill:#02c39a;stroke:#02c39a;" x="154.625395" xlink:href="#m496871a5a9" y="115.781708"/>
     <use style="fill:#02c39a;stroke:#02c39a;" x="155.728162" xlink:href="#m496871a5a9" y="113.844651"/>
     <use style="fill:#02c39a;stroke:#02c39a;" x="156.830929" xlink:href="#m496871a5a9" y="111.691547"/>
     <use style="fill:#02c39a;stroke:#02c39a;" x="157.933696" xlink:href="#m496871a5a9" y="109.272487"/>
     <use style="fill:#02c39a;stroke:#02c39a;" x="159.036462" xlink:href="#m496871a5a9" y="107.301782"/>
     <use style="fill:#02c39a;stroke:#02c39a;" x="160.139229" xlink:href="#m496871a5a9" y="107.422221"/>
     <use style="fill:#02c39a;stroke:#02c39a;" x="161.241996" xlink:href="#m496871a5a9" y="108.493036"/>
     <use style="fill:#02c39a;stroke:#02c39a;" x="162.344763" xlink:href="#m496871a5a9" y="110.111881"/>
     <use style="fill:#02c39a;stroke:#02c39a;" x="163.44753" xlink:href="#m496871a5a9" y="112.254285"/>
     <use style="fill:#02c39a;stroke:#02c39a;" x="164.550296" xlink:href="#m496871a5a9" y="114.581855"/>
     <use style="fill:#02c39a;stroke:#02c39a;" x="165.653063" xlink:href="#m496871a5a9" y="115.154492"/>
     <use style="fill:#02c39a;stroke:#02c39a;" x="166.75583" xlink:href="#m496871a5a9" y="115.992448"/>
     <use style="fill:#02c39a;stroke:#02c39a;" x="167.858597" xlink:href="#m496871a5a9" y="115.65784"/>
     <use style="fill:#02c39a;stroke:#02c39a;" x="168.961364" xlink:href="#m496871a5a9" y="114.356101"/>
     <use style="fill:#02c39a;stroke:#02c39a;" x="170.06413" xlink:href="#m496871a5a9" y="113.035008"/>
     <use style="fill:#02c39a;stroke:#02c39a;" x="171.166897" xlink:href="#m496871a5a9" y="111.540915"/>
     <use style="fill:#02c39a;stroke:#02c39a;" x="172.269664" xlink:href="#m496871a5a9" y="110.2376"/>
     <use style="fill:#02c39a;stroke:#02c39a;" x="173.372431" xlink:href="#m496871a5a9" y="110.040989"/>
     <use style="fill:#02c39a;stroke:#02c39a;" x="174.475198" xlink:href="#m496871a5a9" y="110.726267"/>
     <use style="fill:#02c39a;stroke:#02c39a;" x="175.577964" xlink:href="#m496871a5a9" y="112.013463"/>
     <use style="fill:#02c39a;stroke:#02c39a;" x="176.680731" xlink:href="#m496871a5a9" y="112.898671"/>
     <use style="fill:#02c39a;stroke:#02c39a;" x="177.783498" xlink:href="#m496871a5a9" y="113.388665"/>
     <use style="fill:#02c39a;stroke:#02c39a;" x="178.886265" xlink:href="#m496871a5a9" y="114.645281"/>
     <use style="fill:#02c39a;stroke:#02c39a;" x="179.989032" xlink:href="#m496871a5a9" y="118.310838"/>
     <use style="fill:#02c39a;stroke:#02c39a;" x="193.222233" xlink:href="#m496871a5a9" y="132.416324"/>
     <use style="fill:#02c39a;stroke:#02c39a;" x="194.325" xlink:href="#m496871a5a9" y="134.738281"/>
     <use style="fill:#02c39a;stroke:#02c39a;" x="195.427767" xlink:href="#m496871a5a9" y="137.057584"/>
     <use style="fill:#02c39a;stroke:#02c39a;" x="196.530534" xlink:href="#m496871a5a9" y="138.801595"/>
     <use style="fill:#02c39a;stroke:#02c39a;" x="197.6333" xlink:href="#m496871a5a9" y="138.912439"/>
     <use style="fill:#02c39a;stroke:#02c39a;" x="198.736067" xlink:href="#m496871a5a9" y="137.573319"/>
     <use style="fill:#02c39a;stroke:#02c39a;" x="199.838834" xlink:href="#m496871a5a9" y="136.152938"/>
     <use style="fill:#02c39a;stroke:#02c39a;" x="200.941601" xlink:href="#m496871a5a9" y="134.957095"/>
     <use style="fill:#02c39a;stroke:#02c39a;" x="202.044368" xlink:href="#m496871a5a9" y="133.938149"/>
     <use style="fill:#02c39a;stroke:#02c39a;" x="203.147134" xlink:href="#m496871a5a9" y="133.277035"/>
     <use style="fill:#02c39a;stroke:#02c39a;" x="204.249901" xlink:href="#m496871a5a9" y="132.205142"/>
     <use style="fill:#02c39a;stroke:#02c39a;" x="205.352668" xlink:href="#m496871a5a9" y="130.981622"/>
     <use style="fill:#02c39a;stroke:#02c39a;" x="206.455435" xlink:href="#m496871a5a9" y="128.565493"/>
     <use style="fill:#02c39a;stroke:#02c39a;" x="207.558202" xlink:href="#m496871a5a9" y="126.236872"/>
     <use style="fill:#02c39a;stroke:#02c39a;" x="208.660968" xlink:href="#m496871a5a9" y="123.801693"/>
     <use style="fill:#02c39a;stroke:#02c39a;" x="209.763735" xlink:href="#m496871a5a9" y="121.201312"/>
     <use style="fill:#02c39a;stroke:#02c39a;" x="210.866502" xlink:href="#m496871a5a9" y="118.957767"/>
     <use style="fill:#02c39a;stroke:#02c39a;" x="211.969269" xlink:href="#m496871a5a9" y="117.541341"/>
     <use style="fill:#02c39a;stroke:#02c39a;" x="213.072036" xlink:href="#m496871a5a9" y="116.049875"/>
     <use style="fill:#02c39a;stroke:#02c39a;" x="214.174802" xlink:href="#m496871a5a9" y="117.094589"/>
     <use style="fill:#02c39a;stroke:#02c39a;" x="215.277569" xlink:href="#m496871a5a9" y="118.078034"/>
     <use style="fill:#02c39a;stroke:#02c39a;" x="216.380336" xlink:href="#m496871a5a9" y="119.349027"/>
     <use style="fill:#02c39a;stroke:#02c39a;" x="217.483103" xlink:href="#m496871a5a9" y="119.989404"/>
     <use style="fill:#02c39a;stroke:#02c39a;" x="218.58587" xlink:href="#m496871a5a9" y="120.286796"/>
     <use style="fill:#02c39a;stroke:#02c39a;" x="219.688636" xlink:href="#m496871a5a9" y="120.29028"/>
     <use style="fill:#02c39a;stroke:#02c39a;" x="220.791403" xlink:href="#m496871a5a9" y="120.143768"/>
     <use style="fill:#02c39a;stroke:#02c39a;" x="221.89417" xlink:href="#m496871a5a9" y="119.296384"/>
     <use style="fill:#02c39a;stroke:#02c39a;" x="222.996937" xlink:href="#m496871a5a9" y="118.438106"/>
     <use style="fill:#02c39a;stroke:#02c39a;" x="224.099704" xlink:href="#m496871a5a9" y="118.196122"/>
     <use style="fill:#02c39a;stroke:#02c39a;" x="225.20247" xlink:href="#m496871a5a9" y="118.340173"/>
     <use style="fill:#02c39a;stroke:#02c39a;" x="226.305237" xlink:href="#m496871a5a9" y="118.756345"/>
     <use style="fill:#02c39a;stroke:#02c39a;" x="227.408004" xlink:href="#m496871a5a9" y="118.535236"/>
     <use style="fill:#02c39a;stroke:#02c39a;" x="228.510771" xlink:href="#m496871a5a9" y="117.721943"/>
     <use style="fill:#02c39a;stroke:#02c39a;" x="229.613538" xlink:href="#m496871a5a9" y="116.367339"/>
     <use style="fill:#02c39a;stroke:#02c39a;" x="230.716304" xlink:href="#m496871a5a9" y="117.139961"/>
     <use style="fill:#02c39a;stroke:#02c39a;" x="231.819071" xlink:href="#m496871a5a9" y="121.761147"/>
     <use style="fill:#02c39a;stroke:#02c39a;" x="232.921838" xlink:href="#m496871a5a9" y="127.464402"/>
    </g>
   </g>
   <g id="line2d_16"/>
   <g id="line2d_17"/>
   <g id="line2d_18"/>
   <g id="patch_3">
    <path d="M 26.925 228.439219 
L 26.925 10.999219 
" style="fill:none;stroke:#000000;stroke-linecap:square;stroke-linejoin:miter;stroke-width:0.8;"/>
   </g>
   <g id="patch_4">
    <path d="M 361.725 228.439219 
L 361.725 10.999219 
" style="fill:none;stroke:#000000;stroke-linecap:square;stroke-linejoin:miter;stroke-width:0.8;"/>
   </g>
   <g id="patch_5">
    <path d="M 26.925 228.439219 
L 361.725 228.439219 
" style="fill:none;stroke:#000000;stroke-linecap:square;stroke-linejoin:miter;stroke-width:0.8;"/>
   </g>
   <g id="patch_6">
    <path d="M 26.925 10.999219 
L 361.725 10.999219 
" style="fill:none;stroke:#000000;stroke-linecap:square;stroke-linejoin:miter;stroke-width:0.8;"/>
   </g>
  </g>
 </g>
 <defs>
  <clipPath id="pc8c2c3cf5c">
   <rect height="217.44" width="334.8" x="26.925" y="10.999219"/>
  </clipPath>
 </defs>
</svg>
