<?xml version="1.0" encoding="UTF-8" standalone="no"?>
<svg
   xmlns:dc="http://purl.org/dc/elements/1.1/"
   xmlns:cc="http://creativecommons.org/ns#"
   xmlns:rdf="http://www.w3.org/1999/02/22-rdf-syntax-ns#"
   xmlns:svg="http://www.w3.org/2000/svg"
   xmlns="http://www.w3.org/2000/svg"
   viewBox="0 0 584 340.16"
   height="340.16"
   width="584"
   xml:space="preserve"
   id="svg2"
   version="1.1"><metadata
     id="metadata8"><rdf:RDF><cc:Work
         rdf:about=""><dc:format>image/svg+xml</dc:format><dc:type
           rdf:resource="http://purl.org/dc/dcmitype/StillImage" /><dc:title></dc:title></cc:Work></rdf:RDF></metadata><defs
     id="defs6"><clipPath
       id="clipPath18"
       clipPathUnits="userSpaceOnUse"><path
         style="clip-rule:evenodd"
         id="path16"
         d="M 0,0 H 1824.9999 V 1062.0901 H 0 Z" /></clipPath><clipPath
       id="clipPath30"
       clipPathUnits="userSpaceOnUse"><path
         style="clip-rule:evenodd"
         id="path28"
         d="M 0,0 H 1824.9999 V 1062.0901 H 0 Z" /></clipPath></defs><g
     transform="matrix(0.31999998,0,0,0.31999998,0,8.504e-6)"
     id="g10"><g
       id="g12"><g
         clip-path="url(#clipPath18)"
         id="g14"><g
           transform="scale(2.9918032)"
           id="g20"><path
             id="path22"
             style="fill:#ffffff;fill-opacity:1;fill-rule:nonzero;stroke:none"
             d="M 0,0 H 610 V 355 H 0 Z" /></g></g></g><g
       id="g24"><g
         clip-path="url(#clipPath30)"
         id="g26"><g
           transform="matrix(2.9918032,0,0,2.9918032,1.4959016,1.4959016)"
           id="g32"><path
             id="path34"
             style="fill:#ffffff;fill-opacity:1;fill-rule:nonzero;stroke:none"
             d="m 210,22 h 21 l 9,9 v 121 h -21 l -9,-9 z" /><path
             id="path36"
             style="fill:none;stroke:#666666;stroke-width:1;stroke-linecap:butt;stroke-linejoin:miter;stroke-miterlimit:10;stroke-dasharray:none;stroke-opacity:1"
             d="m 210,22 h 21 l 9,9 v 121 h -21 l -9,-9 z" /><path
             id="path38"
             style="fill:#000000;fill-opacity:0.05100002;fill-rule:nonzero;stroke:none"
             d="m 210,22 h 21 l 9,9 h -21 z" /><path
             id="path40"
             style="fill:#000000;fill-opacity:0.10199998;fill-rule:nonzero;stroke:none"
             d="m 210,22 9,9 v 121 l -9,-9 z" /><path
             id="path42"
             style="fill:none;stroke:#666666;stroke-width:1;stroke-linecap:butt;stroke-linejoin:miter;stroke-miterlimit:10;stroke-dasharray:none;stroke-opacity:1"
             d="M 219,152 V 31 l -9,-9 m 9,9 h 21" /></g><g
           transform="matrix(2.9918032,0,0,2.9918032,8.9754095,463.72949)"
           id="g44"><text
             id="text48"
             style="font-variant:normal;font-weight:normal;font-size:10px;font-family:Helvetica;-inkscape-font-specification:Helvetica;writing-mode:lr-tb;fill:#000000;fill-opacity:1;fill-rule:nonzero;stroke:none"
             transform="translate(0,10)"><tspan
               id="tspan46"
               y="0"
               x="0 5 10 12.77832 18.339844 23.901367 29.462891 32.241211 35.019531 42.241211 50.019531 56.12793 58.90625 63.90625 69.467773 75.029297 80.029297 82.807617 86.137695 91.699219 97.260742 100.59082 106.15234">vstupní CQT spektrogram</tspan></text>
<text
             id="text52"
             style="font-variant:normal;font-weight:normal;font-size:10px;font-family:Helvetica;-inkscape-font-specification:Helvetica;writing-mode:lr-tb;fill:#000000;fill-opacity:1;fill-rule:nonzero;stroke:none"
             transform="translate(0,22)"><tspan
               id="tspan50"
               y="0"
               x="0 5.5615234 11.123047 16.123047 21.68457 27.246094">10x540</tspan></text>
</g><g
           transform="matrix(2.9918032,0,0,2.9918032,1.4959016,1.4959016)"
           id="g54"><path
             id="path56"
             style="fill:#dae8fc;fill-opacity:1;fill-rule:nonzero;stroke:none"
             d="M 10,1 H 30 V 151 H 10 Z" /><path
             id="path58"
             style="fill:none;stroke:#6c8ebf;stroke-width:1;stroke-linecap:butt;stroke-linejoin:miter;stroke-miterlimit:10;stroke-dasharray:none;stroke-opacity:1"
             d="M 10,1 H 30 V 151 H 10 Z" /><path
             id="path60"
             style="fill:#fff2cc;fill-opacity:1;fill-rule:nonzero;stroke:none"
             d="m 50,62 h 60 v 60 H 50 Z" /><path
             id="path62"
             style="fill:none;stroke:#d6b656;stroke-width:1;stroke-linecap:butt;stroke-linejoin:miter;stroke-miterlimit:10;stroke-dasharray:none;stroke-opacity:1"
             d="m 50,62 h 60 v 60 H 50 Z" /></g><g
           transform="matrix(2.9918032,0,0,2.9918032,152.58195,242.33606)"
           id="g64"><text
             id="text68"
             style="font-variant:normal;font-weight:normal;font-size:10px;font-family:Helvetica;-inkscape-font-specification:Helvetica;writing-mode:lr-tb;fill:#000000;fill-opacity:1;fill-rule:nonzero;stroke:none"
             transform="translate(2.8125,10)"><tspan
               id="tspan66"
               y="0"
               x="0 7.2216797 12.783203 16.113281 24.443359 30.004883 35.566406 37.788086 42.788086 47.788086">Harmonická</tspan></text>
<text
             id="text72"
             style="font-variant:normal;font-weight:normal;font-size:10px;font-family:Helvetica;-inkscape-font-specification:Helvetica;writing-mode:lr-tb;fill:#000000;fill-opacity:1;fill-rule:nonzero;stroke:none"
             transform="translate(0.3125,22)"><tspan
               id="tspan70"
               y="0"
               x="0 2.7783203 6.1083984 11.669922 17.231445 22.231445 25.009766 30.571289 33.901367 42.231445 47.792969 52.792969">transformace</tspan></text>
</g><g
           transform="matrix(2.9918032,0,0,2.9918032,604.34424,460.7377)"
           id="g74"><text
             id="text78"
             style="font-variant:normal;font-weight:normal;font-size:10px;font-family:Helvetica;-inkscape-font-specification:Helvetica;writing-mode:lr-tb;fill:#000000;fill-opacity:1;fill-rule:nonzero;stroke:none"
             transform="translate(7.515625,10)"><tspan
               id="tspan76"
               y="0"
               x="0 7.2216797 14.443359 22.22168">HCQT</tspan></text>
<text
             id="text82"
             style="font-variant:normal;font-weight:normal;font-size:10px;font-family:Helvetica;-inkscape-font-specification:Helvetica;writing-mode:lr-tb;fill:#000000;fill-opacity:1;fill-rule:nonzero;stroke:none"
             transform="translate(0,22)"><tspan
               id="tspan80"
               y="0"
               x="0 5.5615234 10.561523 16.123047 21.68457 26.68457 32.246094 37.807617">5x10x360</tspan></text>
</g><g
           transform="matrix(2.9918032,0,0,2.9918032,1.4959016,1.4959016)"
           id="g84"><path
             id="path86"
             style="fill:none;stroke:#000000;stroke-width:1;stroke-linecap:butt;stroke-linejoin:miter;stroke-miterlimit:10;stroke-dasharray:none;stroke-opacity:1"
             d="m 320,92 h 20 -20 13.63" /><path
             id="path88"
             style="fill:#000000;fill-opacity:1;fill-rule:nonzero;stroke:none"
             d="m 338.88,92 -7,3.5 1.75,-3.5 -1.75,-3.5 z" /><path
             id="path90"
             style="fill:none;stroke:#000000;stroke-width:1;stroke-linecap:butt;stroke-linejoin:miter;stroke-miterlimit:10;stroke-dasharray:none;stroke-opacity:1"
             d="m 338.88,92 -7,3.5 1.75,-3.5 -1.75,-3.5 z" /><path
             id="path92"
             style="fill:#d5e8d4;fill-opacity:1;fill-rule:nonzero;stroke:none"
             d="m 260,62 h 60 v 60 h -60 z" /><path
             id="path94"
             style="fill:none;stroke:#82b366;stroke-width:1;stroke-linecap:butt;stroke-linejoin:miter;stroke-miterlimit:10;stroke-dasharray:none;stroke-opacity:1"
             d="m 260,62 h 60 v 60 h -60 z" /></g><g
           transform="matrix(2.9918032,0,0,2.9918032,792.82782,242.33606)"
           id="g96"><text
             id="text100"
             style="font-variant:normal;font-weight:normal;font-size:10px;font-family:Helvetica;-inkscape-font-specification:Helvetica;writing-mode:lr-tb;fill:#000000;fill-opacity:1;fill-rule:nonzero;stroke:none"
             transform="translate(0.25,10)"><tspan
               id="tspan98"
               y="0"
               x="0 6.6699219 12.231445 17.792969 22.792969 28.354492 30.576172 36.137695 41.137695 46.699219">Konvoluční</tspan></text>
<text
             id="text104"
             style="font-variant:normal;font-weight:normal;font-size:10px;font-family:Helvetica;-inkscape-font-specification:Helvetica;writing-mode:lr-tb;fill:#000000;fill-opacity:1;fill-rule:nonzero;stroke:none"
             transform="translate(15.8125,22)"><tspan
               id="tspan102"
               y="0"
               x="0 5.5615234 7.7832031 13.344727">blok</tspan></text>
</g><g
           transform="matrix(2.9918032,0,0,2.9918032,1.4959016,1.4959016)"
           id="g106"><path
             id="path108"
             style="fill:#d5e8d4;fill-opacity:1;fill-rule:nonzero;stroke:none"
             d="m 340,62 h 60 v 60 h -60 z" /><path
             id="path110"
             style="fill:none;stroke:#82b366;stroke-width:1;stroke-linecap:butt;stroke-linejoin:miter;stroke-miterlimit:10;stroke-dasharray:none;stroke-opacity:1"
             d="m 340,62 h 60 v 60 h -60 z" /></g><g
           transform="matrix(2.9918032,0,0,2.9918032,1032.1721,242.33606)"
           id="g112"><text
             id="text116"
             style="font-variant:normal;font-weight:normal;font-size:10px;font-family:Helvetica;-inkscape-font-specification:Helvetica;writing-mode:lr-tb;fill:#000000;fill-opacity:1;fill-rule:nonzero;stroke:none"
             transform="translate(0.25,10)"><tspan
               id="tspan114"
               y="0"
               x="0 6.6699219 12.231445 17.792969 22.792969 28.354492 30.576172 36.137695 41.137695 46.699219">Konvoluční</tspan></text>
<text
             id="text120"
             style="font-variant:normal;font-weight:normal;font-size:10px;font-family:Helvetica;-inkscape-font-specification:Helvetica;writing-mode:lr-tb;fill:#000000;fill-opacity:1;fill-rule:nonzero;stroke:none"
             transform="translate(15.8125,22)"><tspan
               id="tspan118"
               y="0"
               x="0 5.5615234 7.7832031 13.344727">blok</tspan></text>
</g><g
           transform="matrix(2.9918032,0,0,2.9918032,1.4959016,1.4959016)"
           id="g122"><path
             id="path124"
             style="fill:#d5e8d4;fill-opacity:1;fill-rule:nonzero;stroke:none"
             d="m 460,62 h 60 v 60 h -60 z" /><path
             id="path126"
             style="fill:none;stroke:#82b366;stroke-width:1;stroke-linecap:butt;stroke-linejoin:miter;stroke-miterlimit:10;stroke-dasharray:none;stroke-opacity:1"
             d="m 460,62 h 60 v 60 h -60 z" /></g><g
           transform="matrix(2.9918032,0,0,2.9918032,1391.1885,242.33606)"
           id="g128"><text
             id="text132"
             style="font-variant:normal;font-weight:normal;font-size:10px;font-family:Helvetica;-inkscape-font-specification:Helvetica;writing-mode:lr-tb;fill:#000000;fill-opacity:1;fill-rule:nonzero;stroke:none"
             transform="translate(0.25,10)"><tspan
               id="tspan130"
               y="0"
               x="0 6.6699219 12.231445 17.792969 22.792969 28.354492 30.576172 36.137695 41.137695 46.699219">Konvoluční</tspan></text>
<text
             id="text136"
             style="font-variant:normal;font-weight:normal;font-size:10px;font-family:Helvetica;-inkscape-font-specification:Helvetica;writing-mode:lr-tb;fill:#000000;fill-opacity:1;fill-rule:nonzero;stroke:none"
             transform="translate(15.8125,22)"><tspan
               id="tspan134"
               y="0"
               x="0 5.5615234 7.7832031 13.344727">blok</tspan></text>
</g><g
           transform="matrix(2.9918032,0,0,2.9918032,1.4959016,1.4959016)"
           id="g138"><path
             id="path140"
             style="fill:#000000;fill-opacity:1;fill-rule:nonzero;stroke:none"
             d="m 422,92 c -3e-5,0.265213 -0.0508,0.520332 -0.15231,0.765358 -0.10147,0.245026 -0.24597,0.461311 -0.43351,0.648849 -0.18753,0.187531 -0.40383,0.332047 -0.64886,0.433541 C 420.52029,93.949242 420.2652,93.999992 420,94 c -0.26523,-8e-6 -0.52039,-0.05076 -0.76541,-0.152252 -0.24506,-0.101494 -0.46134,-0.24601 -0.64884,-0.433541 -0.18756,-0.187538 -0.33209,-0.403823 -0.43356,-0.648849 C 418.05072,92.520332 417.99997,92.265213 418,92 c -3e-5,-0.265221 0.0507,-0.520348 0.15219,-0.765373 0.10147,-0.245033 0.246,-0.461312 0.43356,-0.648842 0.1875,-0.187538 0.40378,-0.332054 0.64884,-0.433556 C 419.47961,90.050743 419.73477,90 420,90 c 0.2652,0 0.52032,0.05074 0.76535,0.152237 0.24503,0.101494 0.4613,0.24601 0.64883,0.433548 0.18754,0.18753 0.33204,0.403809 0.43351,0.648842 C 421.94919,91.479652 421.99997,91.734779 422,92 Z" /><path
             id="path142"
             style="fill:#000000;fill-opacity:1;fill-rule:nonzero;stroke:none"
             d="m 432,92 c -3e-5,0.265213 -0.0508,0.520332 -0.15231,0.765358 -0.10154,0.245026 -0.24604,0.461311 -0.43354,0.648849 -0.18756,0.187531 -0.40384,0.332047 -0.64886,0.433541 C 430.52029,93.949242 430.2652,93.999992 430,94 c -0.26526,-8e-6 -0.52039,-0.05076 -0.76541,-0.152252 -0.24503,-0.101494 -0.46127,-0.24601 -0.64881,-0.433541 -0.18756,-0.187538 -0.33209,-0.403823 -0.43359,-0.648849 C 428.05069,92.520332 427.99997,92.265213 428,92 c -3e-5,-0.265221 0.0507,-0.520348 0.15219,-0.765373 0.1015,-0.245033 0.24603,-0.461312 0.43359,-0.648842 0.18754,-0.187538 0.40378,-0.332054 0.64881,-0.433556 C 429.47961,90.050743 429.73474,90 430,90 c 0.2652,0 0.52029,0.05074 0.76532,0.152237 0.24499,0.101494 0.46127,0.24601 0.64883,0.433548 0.1875,0.18753 0.332,0.403809 0.43354,0.648842 C 431.94919,91.479652 431.99997,91.734779 432,92 Z" /><path
             id="path144"
             style="fill:#000000;fill-opacity:1;fill-rule:nonzero;stroke:none"
             d="m 442,92 c -3e-5,0.265213 -0.0508,0.520332 -0.15228,0.765358 -0.1015,0.245026 -0.246,0.461311 -0.43354,0.648849 -0.18756,0.187531 -0.40383,0.332047 -0.64886,0.433541 C 440.52029,93.949242 440.26517,93.999992 440,94 c -0.26526,-8e-6 -0.52042,-0.05076 -0.76544,-0.152252 -0.24503,-0.101494 -0.46128,-0.24601 -0.64881,-0.433541 -0.18753,-0.187538 -0.33206,-0.403823 -0.43356,-0.648849 C 438.05069,92.520332 437.99997,92.265213 438,92 c -3e-5,-0.265221 0.0507,-0.520348 0.15216,-0.765373 0.10153,-0.245033 0.24606,-0.461312 0.43359,-0.648842 0.18753,-0.187538 0.40381,-0.332054 0.64884,-0.433556 C 439.47961,90.050743 439.73474,90 440,90 c 0.26517,0 0.52029,0.05074 0.76532,0.152237 0.24503,0.101494 0.4613,0.24601 0.64886,0.433548 0.18754,0.18753 0.33204,0.403809 0.43354,0.648842 C 441.94919,91.479652 441.99997,91.734779 442,92 Z" /><path
             id="path146"
             style="fill:none;stroke:#000000;stroke-width:1;stroke-linecap:butt;stroke-linejoin:miter;stroke-miterlimit:10;stroke-dasharray:none;stroke-opacity:1"
             d="m 580,92 h 20 v 90 H 120 v 70 h 13.63" /><path
             id="path148"
             style="fill:#000000;fill-opacity:1;fill-rule:nonzero;stroke:none"
             d="m 138.88,252 -7,3.5 1.75,-3.5 -1.75,-3.5 z" /><path
             id="path150"
             style="fill:none;stroke:#000000;stroke-width:1;stroke-linecap:butt;stroke-linejoin:miter;stroke-miterlimit:10;stroke-dasharray:none;stroke-opacity:1"
             d="m 138.88,252 -7,3.5 1.75,-3.5 -1.75,-3.5 z" /><path
             id="path152"
             style="fill:#ffffff;fill-opacity:1;fill-rule:nonzero;stroke:none"
             d="m 540,12 h 20 l 20,20 v 120 h -20 l -20,-20 z" /><path
             id="path154"
             style="fill:none;stroke:#666666;stroke-width:1;stroke-linecap:butt;stroke-linejoin:miter;stroke-miterlimit:10;stroke-dasharray:none;stroke-opacity:1"
             d="m 540,12 h 20 l 20,20 v 120 h -20 l -20,-20 z" /><path
             id="path156"
             style="fill:#000000;fill-opacity:0.05100002;fill-rule:nonzero;stroke:none"
             d="m 540,12 h 20 l 20,20 h -20 z" /><path
             id="path158"
             style="fill:#000000;fill-opacity:0.10199998;fill-rule:nonzero;stroke:none"
             d="m 540,12 20,20 v 120 l -20,-20 z" /><path
             id="path160"
             style="fill:none;stroke:#666666;stroke-width:1;stroke-linecap:butt;stroke-linejoin:miter;stroke-miterlimit:10;stroke-dasharray:none;stroke-opacity:1"
             d="M 560,152 V 32 L 540,12 m 20,20 h 20" /><path
             id="path162"
             style="fill:none;stroke:#000000;stroke-width:1;stroke-linecap:butt;stroke-linejoin:miter;stroke-miterlimit:10;stroke-dasharray:none;stroke-opacity:1"
             d="m 240,92 h 13.63" /><path
             id="path164"
             style="fill:#000000;fill-opacity:1;fill-rule:nonzero;stroke:none"
             d="m 258.88,92 -7,3.5 1.75,-3.5 -1.75,-3.5 z" /><path
             id="path166"
             style="fill:none;stroke:#000000;stroke-width:1;stroke-linecap:butt;stroke-linejoin:miter;stroke-miterlimit:10;stroke-dasharray:none;stroke-opacity:1"
             d="m 258.88,92 -7,3.5 1.75,-3.5 -1.75,-3.5 z" /><path
             id="path168"
             style="fill:none;stroke:#000000;stroke-width:1;stroke-linecap:butt;stroke-linejoin:miter;stroke-miterlimit:10;stroke-dasharray:none;stroke-opacity:1"
             d="m 260,252 h 20 -20 13.63" /><path
             id="path170"
             style="fill:#000000;fill-opacity:1;fill-rule:nonzero;stroke:none"
             d="m 278.88,252 -7,3.5 1.75,-3.5 -1.75,-3.5 z" /><path
             id="path172"
             style="fill:none;stroke:#000000;stroke-width:1;stroke-linecap:butt;stroke-linejoin:miter;stroke-miterlimit:10;stroke-dasharray:none;stroke-opacity:1"
             d="m 278.88,252 -7,3.5 1.75,-3.5 -1.75,-3.5 z" /><path
             id="path174"
             style="fill:#d5e8d4;fill-opacity:1;fill-rule:nonzero;stroke:none"
             d="m 140,222 h 120 v 60 H 140 Z" /><path
             id="path176"
             style="fill:none;stroke:#82b366;stroke-width:1;stroke-linecap:butt;stroke-linejoin:miter;stroke-miterlimit:10;stroke-dasharray:none;stroke-opacity:1"
             d="m 140,222 h 120 v 60 H 140 Z" /></g><g
           transform="matrix(2.9918032,0,0,2.9918032,535.53278,721.02454)"
           id="g178"><text
             id="text182"
             style="font-variant:normal;font-weight:normal;font-size:10px;font-family:Helvetica;-inkscape-font-specification:Helvetica;writing-mode:lr-tb;fill:#000000;fill-opacity:1;fill-rule:nonzero;stroke:none"
             transform="translate(0.875,10)"><tspan
               id="tspan180"
               y="0"
               x="0 7.2216797 12.783203 18.344727 23.344727 26.123047 31.68457 36.68457">Conv 1x1</tspan></text>
<text
             id="text186"
             style="font-variant:normal;font-weight:normal;font-size:10px;font-family:Helvetica;-inkscape-font-specification:Helvetica;writing-mode:lr-tb;fill:#000000;fill-opacity:1;fill-rule:nonzero;stroke:none"
             transform="translate(8.390625,22)"><tspan
               id="tspan184"
               y="0"
               x="0 5.5615234 8.3398438 13.339844 15.561523 18.339844 23.901367">1 ﬁlter</tspan></text>
</g><g
           transform="matrix(2.9918032,0,0,2.9918032,1.4959016,1.4959016)"
           id="g188"><path
             id="path190"
             style="fill:none;stroke:#000000;stroke-width:1;stroke-linecap:butt;stroke-linejoin:miter;stroke-miterlimit:10;stroke-dasharray:none;stroke-opacity:1"
             d="M 310.07001,252 H 330 310 323.63" /><path
             id="path192"
             style="fill:#000000;fill-opacity:1;fill-rule:nonzero;stroke:none"
             d="m 328.88,252 -7,3.5 1.75,-3.5 -1.75,-3.5 z" /><path
             id="path194"
             style="fill:none;stroke:#000000;stroke-width:1;stroke-linecap:butt;stroke-linejoin:miter;stroke-miterlimit:10;stroke-dasharray:none;stroke-opacity:1"
             d="m 328.88,252 -7,3.5 1.75,-3.5 -1.75,-3.5 z" /><path
             id="path196"
             style="fill:#fff2cc;fill-opacity:1;fill-rule:nonzero;stroke:none"
             d="m 310,252 c 0,0.98491 -0.0961,1.96034 -0.28824,2.92633 -0.19214,0.96596 -0.47665,1.90393 -0.85358,2.81387 -0.37692,0.90995 -0.83895,1.77436 -1.38616,2.5933 -0.54718,0.81894 -1.16898,1.57663 -1.86542,2.27307 -0.69644,0.69644 -1.45413,1.31823 -2.27307,1.86541 -0.81891,0.54722 -1.68335,1.00925 -2.5933,1.38617 -0.90994,0.37693 -1.84793,0.66144 -2.8139,0.85358 -0.96597,0.19217 -1.94144,0.28824 -2.92633,0.28827 -0.98492,-3e-5 -1.96039,-0.0961 -2.92636,-0.28827 -0.96597,-0.19214 -1.90396,-0.47665 -2.81394,-0.85358 -0.90994,-0.37692 -1.77438,-0.83895 -2.59332,-1.38617 -0.81888,-0.54718 -1.57657,-1.16897 -2.27301,-1.86541 -0.69644,-0.69644 -1.31827,-1.45413 -1.86545,-2.27307 -0.54721,-0.81894 -1.00924,-1.68335 -1.38617,-2.5933 -0.37692,-0.90994 -0.66143,-1.84791 -0.85357,-2.81388 C 280.09607,253.96034 280,252.98491 280,252 c 0,-0.98492 0.0961,-1.96039 0.28818,-2.92639 0.19214,-0.96599 0.47665,-1.90395 0.85357,-2.81389 0.37693,-0.90994 0.83896,-1.77438 1.38614,-2.59331 0.54721,-0.81892 1.16904,-1.57661 1.86548,-2.27304 0.69644,-0.69644 1.45413,-1.31825 2.27301,-1.86545 0.81894,-0.54719 1.68338,-1.00924 2.59332,-1.38615 0.90998,-0.37691 1.84797,-0.66142 2.81394,-0.85356 C 293.03961,237.09607 294.01508,237 295,237 c 0.98489,0 1.96036,0.0961 2.92633,0.28821 0.96597,0.19214 1.90396,0.47667 2.8139,0.85357 0.90995,0.37691 1.77439,0.83895 2.5933,1.38614 0.81894,0.5472 1.57663,1.16901 2.27307,1.86545 0.69644,0.69643 1.31824,1.45412 1.86542,2.27304 0.54721,0.81893 1.00924,1.68335 1.38616,2.59329 0.37693,0.90995 0.66144,1.84792 0.85358,2.81392 C 309.90393,250.03961 310,251.01508 310,252 Z" /><path
             id="path198"
             style="fill:none;stroke:#d6b656;stroke-width:1;stroke-linecap:butt;stroke-linejoin:miter;stroke-miterlimit:10;stroke-dasharray:none;stroke-opacity:1"
             d="m 310,252 c 0,0.98491 -0.0961,1.96034 -0.28824,2.92633 -0.19214,0.96596 -0.47665,1.90393 -0.85358,2.81387 -0.37692,0.90995 -0.83895,1.77436 -1.38616,2.5933 -0.54718,0.81894 -1.16898,1.57663 -1.86542,2.27307 -0.69644,0.69644 -1.45413,1.31823 -2.27307,1.86541 -0.81891,0.54722 -1.68335,1.00925 -2.5933,1.38617 -0.90994,0.37693 -1.84793,0.66144 -2.8139,0.85358 -0.96597,0.19217 -1.94144,0.28824 -2.92633,0.28827 -0.98492,-3e-5 -1.96039,-0.0961 -2.92636,-0.28827 -0.96597,-0.19214 -1.90396,-0.47665 -2.81394,-0.85358 -0.90994,-0.37692 -1.77438,-0.83895 -2.59332,-1.38617 -0.81888,-0.54718 -1.57657,-1.16897 -2.27301,-1.86541 -0.69644,-0.69644 -1.31827,-1.45413 -1.86545,-2.27307 -0.54721,-0.81894 -1.00924,-1.68335 -1.38617,-2.5933 -0.37692,-0.90994 -0.66143,-1.84791 -0.85357,-2.81388 C 280.09607,253.96034 280,252.98491 280,252 c 0,-0.98492 0.0961,-1.96039 0.28818,-2.92639 0.19214,-0.96599 0.47665,-1.90395 0.85357,-2.81389 0.37693,-0.90994 0.83896,-1.77438 1.38614,-2.59331 0.54721,-0.81892 1.16904,-1.57661 1.86548,-2.27304 0.69644,-0.69644 1.45413,-1.31825 2.27301,-1.86545 0.81894,-0.54719 1.68338,-1.00924 2.59332,-1.38615 0.90998,-0.37691 1.84797,-0.66142 2.81394,-0.85356 C 293.03961,237.09607 294.01508,237 295,237 c 0.98489,0 1.96036,0.0961 2.92633,0.28821 0.96597,0.19214 1.90396,0.47667 2.8139,0.85357 0.90995,0.37691 1.77439,0.83895 2.5933,1.38614 0.81894,0.5472 1.57663,1.16901 2.27307,1.86545 0.69644,0.69643 1.31824,1.45412 1.86542,2.27304 0.54721,0.81893 1.00924,1.68335 1.38616,2.59329 0.37693,0.90995 0.66144,1.84792 0.85358,2.81392 C 309.90393,250.03961 310,251.01508 310,252 Z" /></g><g
           transform="matrix(2.9918032,0,0,2.9918032,864.6311,721.02454)"
           id="g200"><text
             id="text204"
             style="font-variant:normal;font-weight:normal;font-size:20px;font-family:Helvetica;-inkscape-font-specification:Helvetica;writing-mode:lr-tb;fill:#000000;fill-opacity:1;fill-rule:nonzero;stroke:none"
             transform="translate(0.890625,18)"><tspan
               id="tspan202"
               y="0"
               x="0">σ</tspan></text>
</g><g
           transform="matrix(2.9918032,0,0,2.9918032,1594.6311,460.7377)"
           id="g206"><text
             id="text210"
             style="font-variant:normal;font-weight:normal;font-size:10px;font-family:Helvetica;-inkscape-font-specification:Helvetica;writing-mode:lr-tb;fill:#000000;fill-opacity:1;fill-rule:nonzero;stroke:none"
             transform="translate(10.015625,10)"><tspan
               id="tspan208"
               y="0"
               x="0 5 10 15 17.77832 23.339844">výstup</tspan></text>
<text
             id="text214"
             style="font-variant:normal;font-weight:normal;font-size:10px;font-family:Helvetica;-inkscape-font-specification:Helvetica;writing-mode:lr-tb;fill:#000000;fill-opacity:1;fill-rule:nonzero;stroke:none"
             transform="translate(0,22)"><tspan
               id="tspan212"
               y="0"
               x="0 5.5615234 11.123047 16.123047 21.68457 27.246094 32.246094 37.807617 43.369141">80x10x360</tspan></text>
</g><g
           transform="matrix(2.9918032,0,0,2.9918032,1.4959016,1.4959016)"
           id="g216"><path
             id="path218"
             style="fill:#000000;fill-opacity:1;fill-rule:nonzero;stroke:none"
             d="m 350,251.5 h 3 v 1 h -3 m 6,-1 h 3 v 1 h -3 m 6,-1 h 3 v 1 h -3 m 6,-1 h 3 v 1 h -3 m 6,-1 h 3 v 1 h -3 m 6,-1 h 3 v 1 h -3 m 6,-1 h 3 v 1 h -3 m 6,-1 h 3 v 1 h -3 m 6,-1 h 3 v 1 h -3 m 6,-1 h 3 v 1 h -3 m 6,-1 h 3 v 1 h -3 m 6,-1 h 3 v 1 h -3" /><path
             id="path220"
             style="fill:#dae8fc;fill-opacity:1;fill-rule:nonzero;stroke:none"
             d="m 330,192 h 20 v 120 h -20 z" /><path
             id="path222"
             style="fill:none;stroke:#6c8ebf;stroke-width:1;stroke-linecap:butt;stroke-linejoin:miter;stroke-miterlimit:10;stroke-dasharray:none;stroke-opacity:1"
             d="m 330,192 h 20 v 120 h -20 z" /></g><g
           transform="matrix(2.9918032,0,0,2.9918032,915.49176,948.40161)"
           id="g224"><text
             id="text228"
             style="font-variant:normal;font-weight:normal;font-size:10px;font-family:Helvetica;-inkscape-font-specification:Helvetica;writing-mode:lr-tb;fill:#000000;fill-opacity:1;fill-rule:nonzero;stroke:none"
             transform="translate(20.015625,10)"><tspan
               id="tspan226"
               y="0"
               x="0 5 10 15 17.77832 23.339844">výstup</tspan></text>
<text
             id="text232"
             style="font-variant:normal;font-weight:normal;font-size:10px;font-family:Helvetica;-inkscape-font-specification:Helvetica;writing-mode:lr-tb;fill:#000000;fill-opacity:1;fill-rule:nonzero;stroke:none"
             transform="translate(0,22)"><tspan
               id="tspan230"
               y="0"
               x="0 2.7783203 8.3398438 13.901367 18.901367 23.901367 29.462891 32.241211 37.241211 42.802734 45.024414 47.246094 52.807617 58.369141 63.369141">funkce salience</tspan></text>
<text
             id="text236"
             style="font-variant:normal;font-weight:normal;font-size:10px;font-family:Helvetica;-inkscape-font-specification:Helvetica;writing-mode:lr-tb;fill:#000000;fill-opacity:1;fill-rule:nonzero;stroke:none"
             transform="translate(18.0625,34)"><tspan
               id="tspan234"
               y="0"
               x="0 5.5615234 11.123047 16.123047 21.68457 27.246094">10x360</tspan></text>
</g><g
           transform="matrix(2.9918032,0,0,2.9918032,1.4959016,1.4959016)"
           id="g238"><path
             id="path240"
             style="fill:#dae8fc;fill-opacity:1;fill-rule:nonzero;stroke:none"
             d="m 420,192 h 20 v 120 h -20 z" /><path
             id="path242"
             style="fill:none;stroke:#6c8ebf;stroke-width:1;stroke-linecap:butt;stroke-linejoin:miter;stroke-miterlimit:10;stroke-dasharray:none;stroke-opacity:1"
             d="m 420,192 h 20 v 120 h -20 z" /></g><g
           transform="matrix(2.9918032,0,0,2.9918032,1103.9753,613.31964)"
           id="g244"><text
             id="text248"
             style="font-variant:normal;font-weight:normal;font-size:10px;font-family:Helvetica;-inkscape-font-specification:Helvetica;writing-mode:lr-tb;fill:#000000;fill-opacity:1;fill-rule:nonzero;stroke:none"
             transform="translate(4.734375,10)"><tspan
               id="tspan246"
               y="0"
               x="0 5 8.3300781 13.891602 18.891602">cross</tspan></text>
<text
             id="text252"
             style="font-variant:normal;font-weight:normal;font-size:10px;font-family:Helvetica;-inkscape-font-specification:Helvetica;writing-mode:lr-tb;fill:#000000;fill-opacity:1;fill-rule:nonzero;stroke:none"
             transform="translate(0,22)"><tspan
               id="tspan250"
               y="0"
               x="0 5.5615234 11.123047 13.901367 17.231445 22.792969 28.354492">entropy</tspan></text>
<text
             id="text256"
             style="font-variant:normal;font-weight:normal;font-size:10px;font-family:Helvetica;-inkscape-font-specification:Helvetica;writing-mode:lr-tb;fill:#000000;fill-opacity:1;fill-rule:nonzero;stroke:none"
             transform="translate(7.78125,34)"><tspan
               id="tspan254"
               y="0"
               x="0 2.2216797 7.7832031 12.783203">loss</tspan></text>
</g><g
           transform="matrix(2.9918032,0,0,2.9918032,1223.6475,948.40161)"
           id="g258"><text
             id="text262"
             style="font-variant:normal;font-weight:normal;font-size:10px;font-family:Helvetica;-inkscape-font-specification:Helvetica;writing-mode:lr-tb;fill:#000000;fill-opacity:1;fill-rule:nonzero;stroke:none"
             transform="translate(8.34375,10)"><tspan
               id="tspan260"
               y="0"
               x="0 5 7.7783203 10 15.561523 20.561523">cílová</tspan></text>
<text
             id="text266"
             style="font-variant:normal;font-weight:normal;font-size:10px;font-family:Helvetica;-inkscape-font-specification:Helvetica;writing-mode:lr-tb;fill:#000000;fill-opacity:1;fill-rule:nonzero;stroke:none"
             transform="translate(0,22)"><tspan
               id="tspan264"
               y="0"
               x="0 5.5615234 7.7832031 12.783203 15.561523 18.891602 21.113281 26.674805 32.236328 37.236328">distribuce</tspan></text>
<text
             id="text270"
             style="font-variant:normal;font-weight:normal;font-size:10px;font-family:Helvetica;-inkscape-font-specification:Helvetica;writing-mode:lr-tb;fill:#000000;fill-opacity:1;fill-rule:nonzero;stroke:none"
             transform="translate(5,34)"><tspan
               id="tspan268"
               y="0"
               x="0 5.5615234 11.123047 16.123047 21.68457 27.246094">10x360</tspan></text>
</g><g
           transform="matrix(2.9918032,0,0,2.9918032,1.4959016,1.4959016)"
           id="g272"><path
             id="path274"
             style="fill:#fff2cc;fill-opacity:1;fill-rule:nonzero;stroke:none"
             d="m 130,62 h 60 v 60 h -60 z" /><path
             id="path276"
             style="fill:none;stroke:#d6b656;stroke-width:1;stroke-linecap:butt;stroke-linejoin:miter;stroke-miterlimit:10;stroke-dasharray:none;stroke-opacity:1"
             d="m 130,62 h 60 v 60 h -60 z" /></g><g
           transform="matrix(2.9918032,0,0,2.9918032,394.91803,224.38524)"
           id="g278"><text
             id="text282"
             style="font-variant:normal;font-weight:normal;font-size:10px;font-family:Helvetica;-inkscape-font-specification:Helvetica;writing-mode:lr-tb;fill:#000000;fill-opacity:1;fill-rule:nonzero;stroke:none"
             transform="translate(2.71875,10)"><tspan
               id="tspan280"
               y="0"
               x="0 5.5615234 8.8916016 14.453125 19.453125 22.231445 29.453125 36.674805 44.453125">ořez HCQT</tspan></text>
<text
             id="text286"
             style="font-variant:normal;font-weight:normal;font-size:10px;font-family:Helvetica;-inkscape-font-specification:Helvetica;writing-mode:lr-tb;fill:#000000;fill-opacity:1;fill-rule:nonzero;stroke:none"
             transform="translate(2.421875,22)"><tspan
               id="tspan284"
               y="0"
               x="0 5.5615234 11.123047 13.901367 18.901367 23.901367 28.901367 31.679688 37.241211 42.802734 48.364258">na výstupní</tspan></text>
<text
             id="text290"
             style="font-variant:normal;font-weight:normal;font-size:10px;font-family:Helvetica;-inkscape-font-specification:Helvetica;writing-mode:lr-tb;fill:#000000;fill-opacity:1;fill-rule:nonzero;stroke:none"
             transform="translate(9.09375,34)"><tspan
               id="tspan288"
               y="0"
               x="0 5.5615234 7.7832031 16.113281 21.674805 27.236328 32.236328">dimenze</tspan></text>
</g><g
           transform="matrix(2.9918032,0,0,2.9918032,1.4959016,1.4959016)"
           id="g292"><path
             id="path294"
             style="fill:none;stroke:#000000;stroke-width:1;stroke-linecap:butt;stroke-linejoin:miter;stroke-miterlimit:10;stroke-dasharray:none;stroke-opacity:1"
             d="M 30,92 H 43.630001" /><path
             id="path296"
             style="fill:#000000;fill-opacity:1;fill-rule:nonzero;stroke:none"
             d="m 48.880001,92 -7,3.5 1.75,-3.5 -1.75,-3.5 z" /><path
             id="path298"
             style="fill:none;stroke:#000000;stroke-width:1;stroke-linecap:butt;stroke-linejoin:miter;stroke-miterlimit:10;stroke-dasharray:none;stroke-opacity:1"
             d="m 48.880001,92 -7,3.5 1.75,-3.5 -1.75,-3.5 z" /><path
             id="path300"
             style="fill:none;stroke:#000000;stroke-width:1;stroke-linecap:butt;stroke-linejoin:miter;stroke-miterlimit:10;stroke-dasharray:none;stroke-opacity:1"
             d="m 190,91.5 h 13.63" /><path
             id="path302"
             style="fill:#000000;fill-opacity:1;fill-rule:nonzero;stroke:none"
             d="m 208.88,91.5 -7,3.5 1.75,-3.5 -1.75,-3.5 z" /><path
             id="path304"
             style="fill:none;stroke:#000000;stroke-width:1;stroke-linecap:butt;stroke-linejoin:miter;stroke-miterlimit:10;stroke-dasharray:none;stroke-opacity:1"
             d="m 208.88,91.5 -7,3.5 1.75,-3.5 -1.75,-3.5 z" /><path
             id="path306"
             style="fill:none;stroke:#000000;stroke-width:1;stroke-linecap:butt;stroke-linejoin:miter;stroke-miterlimit:10;stroke-dasharray:none;stroke-opacity:1"
             d="m 110,91.5 h 13.63" /><path
             id="path308"
             style="fill:#000000;fill-opacity:1;fill-rule:nonzero;stroke:none"
             d="m 128.88,91.5 -7,3.5 1.75,-3.5 -1.75,-3.5 z" /><path
             id="path310"
             style="fill:none;stroke:#000000;stroke-width:1;stroke-linecap:butt;stroke-linejoin:miter;stroke-miterlimit:10;stroke-dasharray:none;stroke-opacity:1"
             d="m 128.88,91.5 -7,3.5 1.75,-3.5 -1.75,-3.5 z" /></g><g
           transform="matrix(0,-2.9918032,2.9918032,0,104.71311,254.30327)"
           id="g312"><text
             id="text316"
             style="font-variant:normal;font-weight:bold;font-size:10px;font-family:Helvetica;-inkscape-font-specification:Helvetica-Bold;writing-mode:lr-tb;fill:#666666;fill-opacity:1;fill-rule:nonzero;stroke:none"
             transform="translate(0.3125,10)"><tspan
               id="tspan314"
               y="0"
               x="0 5.5615234 11.123047 16.68457 22.246094 27.807617">10x540</tspan></text>
</g><g
           transform="matrix(0,-2.9918032,2.9918032,0,344.05737,251.31146)"
           id="g318"><text
             id="text322"
             style="font-variant:normal;font-weight:bold;font-size:10px;font-family:Helvetica;-inkscape-font-specification:Helvetica-Bold;writing-mode:lr-tb;fill:#666666;fill-opacity:1;fill-rule:nonzero;stroke:none"
             transform="translate(0.75,10)"><tspan
               id="tspan320"
               y="0"
               x="0 5.5615234 11.123047 16.68457 22.246094 27.807617 33.369141 38.930664">5x10x540</tspan></text>
</g><g
           transform="matrix(0,-2.9918032,2.9918032,0,583.40161,251.31146)"
           id="g324"><text
             id="text328"
             style="font-variant:normal;font-weight:bold;font-size:10px;font-family:Helvetica;-inkscape-font-specification:Helvetica-Bold;writing-mode:lr-tb;fill:#666666;fill-opacity:1;fill-rule:nonzero;stroke:none"
             transform="translate(0.75,10)"><tspan
               id="tspan326"
               y="0"
               x="0 5.5615234 11.123047 16.68457 22.246094 27.807617 33.369141 38.930664">5x10x360</tspan></text>
</g><g
           transform="matrix(0,-2.9918032,2.9918032,0,973.83191,249.81557)"
           id="g330"><text
             id="text334"
             style="font-variant:normal;font-weight:bold;font-size:10px;font-family:Helvetica;-inkscape-font-specification:Helvetica-Bold;writing-mode:lr-tb;fill:#666666;fill-opacity:1;fill-rule:nonzero;stroke:none"
             transform="translate(0.46875,10)"><tspan
               id="tspan332"
               y="0"
               x="0 5.5615234 11.123047 16.68457 22.246094 27.807617 33.369141 38.930664 44.492188">80x10x360</tspan></text>
</g><g
           transform="matrix(0,-2.9918032,2.9918032,0,795.81964,700.08197)"
           id="g336"><text
             id="text340"
             style="font-variant:normal;font-weight:bold;font-size:10px;font-family:Helvetica;-inkscape-font-specification:Helvetica-Bold;writing-mode:lr-tb;fill:#666666;fill-opacity:1;fill-rule:nonzero;stroke:none"
             transform="translate(0.3125,10)"><tspan
               id="tspan338"
               y="0"
               x="0 5.5615234 11.123047 16.68457 22.246094 27.807617">10x360</tspan></text>
</g></g></g></g></svg>